<svg width="45" height="11" viewBox="0 0 45 11" fill="none" xmlns="http://www.w3.org/2000/svg">
<path d="M17.2359 4.24207C16.5974 4.24207 16.1128 4.7587 16.1128 5.45182C16.1128 6.14495 16.5974 6.668 17.2359 6.668C17.5985 6.668 18.0349 6.453 18.359 6.12249L19.1645 6.98247C18.6543 7.5344 17.8809 7.89059 17.1685 7.89059C15.7374 7.89059 14.6816 6.85732 14.6816 5.46466C14.6816 4.072 15.7566 3.08044 17.2135 3.08044C17.9258 3.08044 18.6864 3.40133 19.1613 3.91476L18.3558 4.8678C18.0606 4.49236 17.6242 4.24207 17.2327 4.24207H17.2359Z" fill="#202020"/>
<path d="M26.2081 3.1189V6.66153H28.1848V7.82957H24.8123V3.1189H26.2113H26.2081Z" fill="#202020"/>
<path d="M30.0651 3.1189V7.82957H28.666V3.1189H30.0651Z" fill="#202020"/>
<path d="M31.9328 3.1189L33.0078 6.37914L34.0827 3.1189H35.5139L33.6945 7.82957H32.244L30.4438 3.1189H31.936H31.9328Z" fill="#202020"/>
<path d="M44.4378 3.1189V4.00455L42.0985 6.73854H44.4827V7.82636H40.2373V6.94712L42.5766 4.20671H40.3175V3.1189H44.4378Z" fill="#202020"/>
<path d="M22.5242 3.1189H21.0867L19.0779 7.82957H20.5155L21.7637 4.51798L22.9735 7.82957H24.4656L22.5242 3.1189Z" fill="#202020"/>
<path d="M37.2819 6.75458V6.01012H38.9152V4.93514H37.2819V4.19388H39.8009V3.1189H35.8828V7.82957H39.8009V6.75458H37.2819Z" fill="#202020"/>
<path d="M5.78018 0.13147V10.8653L4.23349 10.1721V8.02858L4.53833 8.16657V2.83016L1.75942 4.07842V6.9183L1.96158 7.01136V9.1517L0.517578 8.50671V2.49001L5.78018 0.13147Z" fill="#202020"/>
<path d="M11.5177 2.48996V4.50836H10.2759V4.07516L10.0769 3.98531V1.84497L11.5177 2.48996Z" fill="#202020"/>
<path d="M11.5177 6.4851V8.50671L6.26147 10.8653V0.13147L7.80175 0.821384V2.96493L7.50011 2.83016V8.16657L10.2758 6.9183V6.4851H11.5177Z" fill="#202020"/>
<path d="M9.59549 -0.00012207V6.69686L8.28626 7.28409V6.77708C8.28626 6.64552 8.17715 6.53642 8.04559 6.53642H7.98462V4.45705H8.04559C8.17715 4.45705 8.28626 4.34794 8.28626 4.21638V-0.00012207H9.59549Z" fill="#202020"/>
<path d="M9.59564 9.89612V10.9968H8.2832V10.4866L9.59564 9.89612Z" fill="#202020"/>
<path d="M4.05691 4.46023V6.5396H3.99595C3.86438 6.5396 3.75528 6.64871 3.75528 6.78027V11H2.44604V4.29658L3.75528 3.70935V4.21636C3.75528 4.34792 3.86438 4.45703 3.99595 4.45703H4.05691V4.46023Z" fill="#202020"/>
<path d="M3.7521 -0.00012207V0.513303L2.44287 1.10053V-0.00012207H3.7521Z" fill="#202020"/>
</svg>
