<svg width="100" height="44" viewBox="0 0 100 44" fill="none" xmlns="http://www.w3.org/2000/svg">
<g clip-path="url(#clip0_139_384)">
<path d="M59.8929 23.2343C59.8811 23.2461 59.8717 23.2604 59.86 23.2722C59.8694 23.258 59.8811 23.2461 59.8929 23.2319V23.2343Z" fill="#F4F4F4"/>
<path d="M83.0193 28.9753C83.1462 28.9753 83.2566 29.1104 83.2824 29.3405C83.5315 31.375 84.8964 32.0959 86.508 32.0959C86.5714 32.0959 86.6349 32.0959 86.6983 32.0936C87.6756 32.0651 88.6787 31.8327 89.5127 31.3395C90.5464 30.7016 91.4086 29.6298 91.6083 28.4986C91.8386 27.2229 91.465 25.8333 90.8331 24.7021C90.4595 24.0642 90.0296 23.4548 89.4846 22.9355C88.0022 21.617 86.1721 20.9317 84.3067 20.7942C84.208 21.176 84.0882 21.572 83.912 21.9609C83.5455 22.8478 83.0264 23.5188 82.3709 23.9599L82.3592 23.967L82.3474 23.9741C81.7084 24.3891 81.006 24.5622 80.3388 24.6879L80.2988 24.695L80.2565 24.6998C79.7068 24.7756 79.1289 24.8136 78.5416 24.8136C77.8814 24.8136 77.1954 24.7662 76.4977 24.6713H76.4859L76.4742 24.6689C76.305 24.6428 76.1406 24.6096 75.9832 24.5717C75.9197 24.6618 75.8587 24.7519 75.7999 24.8444C76.3309 26.0609 76.7302 27.4718 77.0145 29.1199C77.4162 31.2873 77.4374 33.4168 77.4139 35.034C77.4139 35.1692 77.4068 35.3043 77.4021 35.4395C77.9989 35.3233 78.8094 35.2522 79.7068 35.2522C81.5369 35.2522 83.0193 35.5462 83.0193 35.9114C83.0193 36.03 82.2887 36.3477 82.0819 36.3691C81.4805 36.4924 80.6395 36.5683 79.7068 36.5683C78.7741 36.5683 77.9542 36.4947 77.3552 36.3738C77.2659 37.761 77.0756 39.1293 76.7725 40.5189V40.5331L76.7655 40.545C76.6433 41.0738 76.5024 41.669 76.2416 42.2476C76.2205 42.2974 76.1993 42.3448 76.1758 42.3922C77.5666 43.4167 79.883 43.5992 81.6027 43.5992C82.1548 43.5992 82.6458 43.5803 83.024 43.5637C87.3584 43.4475 91.465 42.0863 91.2348 37.3034C91.0046 32.1173 87.3585 33.6231 84.3725 32.5797C83.3388 32.2311 82.4484 30.7253 82.5917 29.6819C82.6716 29.1816 82.8596 28.9682 83.0193 28.9682V28.9753Z" fill="#F4F4F4"/>
<path d="M73.8124 24.5456C73.6574 24.2682 73.4859 24.0121 73.3026 23.7678C73.1805 23.8508 73.0536 23.9314 72.9221 24.0026C72.0458 24.5053 71.0732 24.6476 70.4083 24.7116C70.1194 24.7377 69.8257 24.7519 69.532 24.7519C68.5923 24.7519 67.6596 24.6096 66.835 24.3441C65.3714 23.8888 64.5727 22.8999 64.1263 21.7901C63.3322 22.1672 62.5993 22.6794 61.9837 23.3315C61.6196 23.718 61.2813 24.1306 60.9642 24.5575C62.7402 26.9312 63.5766 29.9025 63.3205 33.0397C63.0174 36.5303 61.3682 39.7648 58.7746 42.001C59.0753 42.4586 59.5005 42.8191 60.1184 43.0112C60.7903 43.2293 61.528 43.3337 62.2563 43.3337C62.4935 43.3337 62.7285 43.3218 62.9611 43.3005C63.5648 43.2435 64.225 43.1274 64.77 42.8072C65.2587 42.5464 65.6886 42.1124 65.947 41.5907C66.1772 41.1259 66.2054 40.5758 66.1772 40.0541C66.1772 39.881 66.149 39.7364 66.149 39.5609H66.2054C66.5202 39.5609 66.8374 39.5893 67.1827 39.6178C67.1545 39.8502 67.1545 40.0826 67.1264 40.3126C67.0982 41.0667 67.1545 41.9654 67.6432 42.5155C68.0449 42.9803 68.6487 43.1819 69.2219 43.2696C69.8045 43.3503 70.3989 43.3929 70.9886 43.3929C71.4725 43.3929 71.9588 43.3621 72.4357 43.2981C72.8962 43.2103 73.4131 43.0942 73.8148 42.8333C74.2447 42.544 74.5337 42.0792 74.7334 41.5884C74.9354 41.1544 75.0482 40.6612 75.1633 40.1679C75.5368 38.4582 75.7365 36.7485 75.7671 35.0103C75.7952 33.1559 75.7389 31.2731 75.3935 29.4163C75.1069 27.7351 74.6464 26.0253 73.8148 24.548L73.8124 24.5456ZM67.5257 36.5422C67.2955 36.5279 67.0653 36.5208 66.8374 36.5208C66.6095 36.5208 66.3769 36.5279 66.149 36.5422C66.1209 36.5422 66.0057 36.5706 65.9188 36.5706C65.9188 35.7881 65.9752 35.034 66.1209 34.2515C66.3793 32.9876 66.8045 32.4374 67.1616 32.4374C67.5187 32.4374 67.8006 32.9804 67.7865 33.9053C67.7583 34.6593 67.6432 35.5865 67.5281 36.5422H67.5257Z" fill="#F4F4F4"/>
<path d="M58.5162 24.2753C57.607 24.7401 56.4887 24.9962 55.2319 24.9962C54.809 24.9962 54.3791 24.9653 53.9609 24.9061C53.1927 24.7994 52.2647 24.4935 51.4824 23.7346C51.1112 24.0476 50.6695 24.2966 50.1926 24.446C49.3163 24.7258 48.1511 24.88 46.9083 24.88C46.3398 24.88 45.2356 24.842 44.1056 24.5978C44.6929 25.8688 45.1299 27.3556 45.433 29.1175C45.8347 31.2849 45.8558 33.4144 45.8323 35.0316C45.8018 36.8884 45.5927 38.6835 45.191 40.5189V40.5331L45.1839 40.545C45.0688 41.0406 44.9349 41.5955 44.7023 42.1409C45.83 43.4712 47.4487 43.9976 49.2059 43.9976C52.0909 43.9976 55.3376 42.5891 57.3439 41.0311C59.8012 39.089 61.4035 36.075 61.6807 32.888C61.9649 29.4163 60.7151 26.3668 58.5138 24.2705L58.5162 24.2753ZM52.3187 32.805C52.1261 33.7037 51.574 34.5716 50.8833 35.2095C50.7729 33.9053 50.7165 32.601 50.8011 31.3253C50.8645 30.2012 51.0924 29.7768 51.3555 29.7768C51.8935 29.7768 52.5795 31.5576 52.3211 32.8026L52.3187 32.805Z" fill="#F4F4F4"/>
<path d="M42.2356 24.5456C41.3358 22.9331 39.9027 21.8897 38.2958 21.3846C37.8636 22.9023 36.8721 23.654 36.0452 24.0216C35.0139 24.4816 33.8604 24.548 32.5635 24.5836C32.4061 24.5883 32.2487 24.5907 32.0913 24.5907C31.4852 24.5907 30.9402 24.5551 30.4421 24.4816C30.4586 24.8492 30.4633 25.2309 30.468 25.6269V25.6578V25.6673V25.6767C30.468 27.7801 30.2659 32.6437 30.0569 34.7376V34.7494L30.0545 34.7613L30.0357 34.9226C29.7561 37.3603 29.4155 40.315 27.7404 42.5867C27.966 42.7622 28.2244 42.9068 28.5392 43.004C29.2111 43.2222 29.9488 43.3265 30.6771 43.3265C30.9143 43.3265 31.1493 43.3147 31.3819 43.2933C31.9856 43.2364 32.6458 43.1202 33.1908 42.8001C33.6795 42.5393 34.1094 42.1053 34.3678 41.5836C34.598 41.1188 34.6262 40.5687 34.598 40.047C34.598 39.8739 34.5698 39.7292 34.5698 39.5538H34.6262C34.941 39.5538 35.2582 39.5822 35.6035 39.6107C35.5753 39.8431 35.5753 40.0755 35.5471 40.3055C35.519 41.0596 35.5753 41.9583 36.064 42.5084C36.4657 42.9732 37.0695 43.1748 37.6427 43.2625C38.2253 43.3431 38.8197 43.3858 39.4094 43.3858C39.8933 43.3858 40.3796 43.355 40.8566 43.291C41.317 43.2032 41.8339 43.087 42.2356 42.8262C42.6655 42.5369 42.9545 42.0721 43.1542 41.5812C43.3562 41.1473 43.469 40.6541 43.5841 40.1608C43.9576 38.4511 44.1573 36.7414 44.1878 35.0032C44.216 33.1488 44.1597 31.266 43.8143 29.4092C43.5277 27.7279 43.0672 26.0182 42.2356 24.5409V24.5456ZM35.9489 36.5422C35.7186 36.5279 35.4884 36.5208 35.2605 36.5208C35.0327 36.5208 34.8001 36.5279 34.5722 36.5422C34.544 36.5422 34.4289 36.5706 34.342 36.5706C34.342 35.7881 34.3983 35.034 34.544 34.2515C34.8024 32.9876 35.2276 32.4374 35.5847 32.4374C35.9418 32.4374 36.2237 32.9804 36.2097 33.9053C36.1815 34.6593 36.0663 35.5865 35.9512 36.5422H35.9489Z" fill="#F4F4F4"/>
<path d="M28.8235 25.6744C28.8164 25.046 28.8117 24.4982 28.7624 24.0239C28.6543 23.9765 28.5463 23.9291 28.4429 23.8745C28.1234 23.7109 27.8321 23.5165 27.5666 23.2983C26.3003 23.9694 24.7803 24.5077 23.0231 24.8989C22.0411 25.1313 21.0591 25.2499 20.1029 25.2499C20.0818 25.2499 20.063 25.2499 20.0418 25.2499C20.0418 25.2665 20.0418 25.2831 20.0395 25.2973C19.8962 27.9342 20.1264 31.4699 20.3261 34.1353C19.4357 32.2809 18.4889 29.5562 17.6573 27.6734C17.1968 25.9352 16.5085 24.4271 14.0981 24.4271C13.9665 24.4271 13.8326 24.4271 13.7011 24.4271C12.9728 24.4271 12.2516 24.4484 11.5726 24.7187C10.9994 24.9227 10.452 25.2689 10.0503 25.7621C9.24682 26.7486 8.92966 28.1097 8.72997 29.414C8.41517 31.4723 8.32825 33.5875 8.26951 35.6743C8.24132 37.5571 8.35644 39.4992 8.84274 41.3251C9.01424 41.9037 9.18809 42.5132 9.56162 42.978C9.82005 43.2957 10.2218 43.4712 10.5953 43.5874C11.3941 43.8198 12.2469 43.936 13.0997 43.936C14.0535 43.936 15.012 43.7913 15.9071 43.4996C16.2219 43.3835 16.539 43.1511 16.7387 42.8618C17.0535 42.397 17.1123 41.7899 17.1686 41.2398C17.225 40.7181 17.1968 39.3261 17.1686 38.8044C17.6855 39.4992 18.8343 41.7899 19.4357 42.3401C20.3801 43.1914 21.2799 43.3313 22.4381 43.3313C22.5814 43.3313 22.7294 43.3313 22.8798 43.3265C23.8853 43.2981 25.0035 43.0941 25.7506 42.3709C27.7898 40.4003 28.1046 37.3295 28.4194 34.5763C28.6191 32.5489 28.8211 27.709 28.8211 25.6791L28.8235 25.6744Z" fill="#F4F4F4"/>
<path d="M72.1068 9.92164C71.442 13.6968 69.088 16.2317 65.0919 17.4862C65.0989 17.5597 65.1036 17.6332 65.1083 17.7067C65.2563 19.4994 65.1976 22.1008 67.3284 22.7576C68.0214 22.9829 68.7826 23.0896 69.5344 23.0896C69.7787 23.0896 70.0207 23.0778 70.2603 23.0564C70.8829 22.9971 71.5642 22.8762 72.1256 22.549C72.6284 22.281 73.0724 21.8305 73.3402 21.2945C73.5775 20.8155 73.608 20.2488 73.5775 19.7105C73.5775 19.5303 73.547 19.3809 73.547 19.203H73.6057C73.9322 19.203 74.2564 19.2338 74.6135 19.2623C74.583 19.5018 74.583 19.7413 74.5548 19.9808C74.5243 20.7586 74.5853 21.6834 75.0881 22.2525C75.5016 22.7316 76.1241 22.9402 76.7162 23.0303C77.3176 23.1133 77.9284 23.1584 78.5392 23.1584C79.0396 23.1584 79.54 23.1276 80.0334 23.0612C80.5079 22.9711 81.0412 22.8525 81.4547 22.5822C81.8987 22.2834 82.1947 21.8044 82.4014 21.2969C82.6082 20.8487 82.728 20.3413 82.8455 19.8314C83.2307 18.0672 83.4375 16.3053 83.468 14.5102C83.4986 12.5965 83.4375 10.6544 83.0827 8.74072C82.7867 7.00728 82.3122 5.24301 81.4547 3.71824C80.0897 1.27577 77.5431 0.0924816 74.9777 0.0924816C73.1429 0.0924816 71.2987 0.699542 69.8727 1.88521C71.7568 3.94589 72.6284 6.88397 72.1068 9.92164ZM73.5188 13.7324C73.7866 12.4281 74.2259 11.8614 74.5924 11.8614C74.9589 11.8614 75.2502 12.421 75.2361 13.3743C75.2056 14.1521 75.0881 15.1077 74.9706 16.0942C74.7334 16.08 74.4961 16.0729 74.2588 16.0729C74.0215 16.0729 73.7842 16.08 73.547 16.0942C73.5164 16.0942 73.399 16.125 73.3097 16.125C73.3097 15.3188 73.3684 14.541 73.5164 13.7347L73.5188 13.7324Z" fill="#F4F4F4"/>
<path d="M52.6641 8.57235V8.58658L52.6664 8.60081C52.8497 10.5595 52.9437 12.0629 52.9695 13.4857C52.9742 13.8177 52.9789 14.145 52.986 14.4675C53.0141 16.2033 53.0423 17.8419 52.939 19.6844C52.9108 20.4788 52.8732 21.4416 52.4715 22.3759C52.8661 22.8312 53.4159 23.156 54.1864 23.2627C54.5318 23.3102 54.8818 23.3362 55.2319 23.3362C57.0361 23.3362 58.7793 22.6723 59.2139 21.1712C59.6556 19.5279 58.8521 16.8673 61.3917 16.5685C66.6776 15.9401 69.7623 13.7584 70.4882 9.63471C71.0849 6.16783 69.5038 2.90962 66.6259 1.47497C64.5868 0.441067 62.3408 0 60.102 0C58.6994 0 57.2969 0.173107 55.9484 0.483751C53.9445 0.967502 52.5607 2.29782 51.8559 4.20437C52.3352 5.64376 52.502 7.11161 52.6594 8.53678L52.6641 8.56998V8.57235ZM59.759 7.62856C59.7872 6.84128 60.1842 6.47373 60.6047 6.47373C61.3189 6.47373 62.1036 7.53134 61.2884 9.39283C60.7292 10.6733 60.3627 11.1618 60.1278 11.1618C59.6438 11.1618 59.7073 9.09879 59.759 7.63094V7.62856Z" fill="#F4F4F4"/>
<path d="M31.5745 3.6139V3.6305C31.7765 5.36395 31.5862 6.93377 31.013 8.29728L31.0083 8.30914L31.0036 8.32099C30.5549 9.33829 29.6927 10.4979 28.0341 11.0551C29.0702 11.2164 29.9746 11.693 30.6865 12.4542C31.7108 13.5498 32.2206 15.1528 32.1242 16.9692C32.1172 17.3439 32.0467 17.6617 31.9833 17.9438L31.9668 18.015C31.6027 19.7176 30.6301 21.1688 29.089 22.3355C29.9253 22.798 30.9895 22.9284 32.096 22.9284C32.2394 22.9284 32.3827 22.9284 32.526 22.9236C34.6591 22.8643 36.5832 22.7434 36.8487 20.263C37.0037 19.0086 36.5926 15.9922 36.4681 14.2944C36.461 14.2114 36.5268 14.1592 36.5949 14.1592C36.6372 14.1592 36.6772 14.1805 36.703 14.2256C37.14 15.0651 37.9693 16.5187 38.1243 16.6752C38.5167 17.0712 39.0734 17.268 39.642 17.268C40.0602 17.268 40.4854 17.1589 40.8495 16.9431C41.3335 16.6491 42.3883 15.0627 42.938 13.9197C42.9592 13.877 42.9968 13.8557 43.0344 13.8557C43.0954 13.8557 43.1565 13.9055 43.1471 13.9814C42.7947 16.7771 41.4932 21.6241 42.9521 22.4423C43.8754 22.9687 45.4306 23.2177 46.9177 23.2177C47.9608 23.2177 48.971 23.0944 49.704 22.862C50.1786 22.7126 50.6226 22.383 50.8293 21.9941C51.2428 21.2756 51.2733 20.41 51.3039 19.6038C51.4213 17.4814 51.3626 15.6294 51.3344 13.5071C51.3039 11.923 51.1864 10.339 51.0384 8.75494C50.8598 7.14007 50.6837 5.49674 50.0306 4.0028C49.3211 2.41876 47.9585 1.40146 46.2106 1.19278C45.675 1.12164 45.1041 1.04813 44.5402 1.04813C43.7039 1.04813 42.884 1.20701 42.2121 1.75953C41.3828 2.41638 40.8801 3.3744 40.4642 4.29922C40.086 5.06279 39.8581 5.86667 39.6161 6.66106C39.5997 6.71323 39.5551 6.73932 39.5128 6.73932C39.4634 6.73932 39.4164 6.70849 39.4047 6.64921C39.205 5.66273 38.9419 4.69286 38.6576 3.70164C38.4203 2.86457 38.1549 1.9682 37.5323 1.31134C37.1165 0.863164 36.5245 0.564377 35.9043 0.443439C35.1736 0.28456 34.403 0.218163 33.6372 0.218163C33.2542 0.218163 32.8737 0.234762 32.4978 0.265589C31.739 0.341472 31.0271 0.609432 30.4163 1.01967C31.0412 1.74056 31.4429 2.6132 31.5769 3.59968V3.61628L31.5745 3.6139Z" fill="#F4F4F4"/>
<path d="M14.2461 20.9815C15.0754 22.0273 16.3487 22.8359 17.6808 23.2532C18.4513 23.488 19.2736 23.5923 20.1029 23.5923C20.9322 23.5923 21.8273 23.4809 22.6566 23.2817C25.8845 22.5632 29.6457 21.01 30.3552 17.6617C30.4139 17.3937 30.4727 17.1542 30.4727 16.9147C30.616 14.4651 29.3826 12.6534 27.2048 12.6534C26.6715 12.6534 26.0795 12.7625 25.4381 12.9973C24.3716 13.3553 22.3888 14.4627 21.3809 14.9702C21.2118 15.0579 21.0591 15.0959 20.9251 15.0959C20.2415 15.0959 20.0911 14.0999 21.0849 13.775C21.8249 13.5355 22.6542 13.4763 23.3943 13.2059C23.7208 13.1158 24.0168 12.938 24.2236 12.6985C24.6394 12.191 24.5501 11.3539 24.0756 10.9342C23.749 10.6354 23.2462 10.5145 22.7717 10.5145C22.7012 10.5121 22.6331 10.5097 22.5626 10.5097C21.98 10.5097 21.3997 10.6141 20.8171 10.6947C20.7701 10.6994 20.7255 10.7018 20.6832 10.7018C20.4412 10.7018 20.3049 10.6164 20.2533 10.3366C20.0794 9.48057 20.5962 8.96599 21.2752 8.96599C21.4044 8.96599 21.5383 8.98496 21.6746 9.02291C22.9338 9.36912 24.4209 9.73193 25.7835 9.73193C27.3693 9.73193 28.7906 9.2387 29.4907 7.64753C29.9934 6.45239 30.0827 5.10784 29.9347 3.82258C29.6387 1.64096 27.4773 0.654487 25.4029 0.474267C24.4726 0.403127 23.4318 0.343843 22.3629 0.343843C18.4983 0.343843 14.2203 1.12638 13.0856 4.98928C12.3737 7.35112 12.1975 9.86236 12.1975 12.3119C12.1975 13.8059 12.2563 15.2998 12.5523 16.7961C12.8177 18.2616 13.2923 19.7555 14.2391 20.9815H14.2461Z" fill="#F4F4F4"/>
<path d="M11.7817 19.4994C11.7817 20.6234 11.0205 21.6052 10.5084 22.1387C10.2758 22.3806 9.82474 22.3806 9.59216 22.1387C9.08002 21.6052 8.31885 20.6211 8.31885 19.4994C8.31885 17.8039 9.09411 16.4309 10.0503 16.4309C11.0064 16.4309 11.7817 17.8039 11.7817 19.4994Z" fill="#F4F4F4"/>
<path d="M4.3086 27.0426C5.42217 27.0426 6.39477 26.2743 6.92336 25.7574C7.16299 25.5226 7.16299 25.0673 6.92336 24.8326C6.39477 24.3156 5.41982 23.5473 4.3086 23.5473C2.62886 23.5473 1.26862 24.3298 1.26862 25.295C1.26862 26.2601 2.62886 27.0426 4.3086 27.0426Z" fill="#F4F4F4"/>
<path d="M6.15749 17.683C7.59526 19.1342 8.04867 21.2139 8.19198 22.4494C8.25541 23.0066 7.78085 23.488 7.22642 23.424C6.00244 23.2793 3.94211 22.8217 2.50434 21.3704C0.335941 19.1793 -0.603776 16.5803 0.404071 15.563C1.41192 14.5457 3.98674 15.4943 6.15514 17.683H6.15749Z" fill="#F4F4F4"/>
<path d="M88.2183 17.7755C88.2183 18.8995 88.9795 19.8812 89.4916 20.4148C89.7242 20.6566 90.1752 20.6566 90.4078 20.4148C90.92 19.8812 91.6811 18.8971 91.6811 17.7755C91.6811 16.08 90.9059 14.707 89.9497 14.707C88.9936 14.707 88.2183 16.08 88.2183 17.7755Z" fill="#F4F4F4"/>
<path d="M95.6914 25.3187C94.5778 25.3187 93.6052 24.5504 93.0766 24.0334C92.837 23.7987 92.837 23.3434 93.0766 23.1086C93.6052 22.5916 94.5802 21.8233 95.6914 21.8233C97.3711 21.8233 98.7314 22.6059 98.7314 23.571C98.7314 24.5361 97.3711 25.3187 95.6914 25.3187Z" fill="#F4F4F4"/>
<path d="M93.8425 15.959C92.4047 17.4103 91.9513 19.4899 91.808 20.7254C91.7446 21.2827 92.2191 21.7641 92.7736 21.7C93.9976 21.5554 96.0579 21.0977 97.4956 19.6465C99.664 17.4577 100.604 14.8587 99.5959 13.8414C98.5881 12.8241 96.0132 13.7727 93.8448 15.9614L93.8425 15.959Z" fill="#F4F4F4"/>
</g>
<defs>
<clipPath id="clip0_139_384">
<rect width="100" height="44" fill="white"/>
</clipPath>
</defs>
</svg>
