<svg width="576" height="294" viewBox="0 0 576 294" fill="none" xmlns="http://www.w3.org/2000/svg">
<g clip-path="url(#clip0_139_208)">
<path d="M344.884 132.363C344.817 132.43 344.762 132.511 344.695 132.579C344.749 132.498 344.817 132.43 344.884 132.349V132.363Z" fill="white"/>
<path d="M477.861 165.069C478.59 165.069 479.225 165.839 479.374 167.149C480.806 178.74 488.654 182.847 497.921 182.847C498.286 182.847 498.651 182.847 499.015 182.833C504.635 182.671 510.403 181.347 515.198 178.537C521.142 174.903 526.1 168.797 527.248 162.353C528.572 155.085 526.424 147.169 522.79 140.725C520.642 137.091 518.17 133.619 515.036 130.661C506.512 123.15 495.989 119.245 485.264 118.462C484.696 120.637 484.007 122.893 482.994 125.108C480.887 130.161 477.902 133.984 474.133 136.497L474.065 136.537L473.998 136.578C470.323 138.942 466.284 139.928 462.448 140.644L462.218 140.684L461.975 140.711C458.814 141.144 455.491 141.36 452.114 141.36C448.318 141.36 444.374 141.09 440.362 140.549H440.294L440.227 140.536C439.254 140.387 438.308 140.198 437.403 139.982C437.039 140.495 436.687 141.009 436.35 141.536C439.403 148.466 441.699 156.504 443.333 165.893C445.643 178.24 445.765 190.371 445.63 199.584C445.63 200.354 445.589 201.124 445.562 201.894C448.994 201.233 453.654 200.827 458.814 200.827C469.337 200.827 477.861 202.502 477.861 204.583C477.861 205.258 473.66 207.068 472.471 207.19C469.013 207.893 464.177 208.325 458.814 208.325C453.451 208.325 448.737 207.906 445.292 207.217C444.779 215.12 443.685 222.915 441.942 230.831V230.912L441.902 230.98C441.199 233.992 440.389 237.383 438.889 240.679C438.768 240.963 438.646 241.233 438.511 241.503C446.508 247.339 459.827 248.38 469.715 248.38C472.89 248.38 475.713 248.271 477.888 248.177C502.811 247.515 526.424 239.761 525.1 212.513C523.776 182.968 502.811 191.546 485.642 185.602C479.698 183.617 474.578 175.038 475.402 169.094C475.862 166.244 476.942 165.028 477.861 165.028V165.069Z" fill="white"/>
<path d="M424.921 139.833C424.03 138.253 423.044 136.794 421.99 135.402C421.288 135.875 420.558 136.335 419.802 136.74C414.763 139.604 409.171 140.414 405.348 140.779C403.686 140.928 401.998 141.009 400.309 141.009C394.906 141.009 389.543 140.198 384.801 138.685C376.386 136.091 371.793 130.458 369.226 124.136C364.66 126.284 360.446 129.202 356.907 132.917C354.813 135.119 352.867 137.469 351.044 139.901C361.256 153.424 366.065 170.351 364.593 188.223C362.85 208.109 353.367 226.535 338.454 239.274C340.183 241.882 342.628 243.935 346.181 245.029C350.044 246.272 354.286 246.867 358.473 246.867C359.838 246.867 361.189 246.799 362.526 246.677C365.998 246.353 369.794 245.691 372.928 243.868C375.737 242.381 378.209 239.909 379.695 236.937C381.019 234.289 381.181 231.155 381.019 228.183C381.019 227.197 380.857 226.373 380.857 225.373H381.181C382.991 225.373 384.815 225.536 386.801 225.698C386.639 227.022 386.639 228.345 386.476 229.656C386.314 233.952 386.639 239.072 389.448 242.206C391.758 244.854 395.23 246.002 398.526 246.502C401.876 246.961 405.294 247.204 408.684 247.204C411.467 247.204 414.263 247.029 417.006 246.664C419.653 246.164 422.625 245.502 424.935 244.016C427.407 242.368 429.069 239.72 430.217 236.924C431.378 234.452 432.027 231.642 432.689 228.832C434.837 219.092 435.985 209.352 436.161 199.449C436.323 188.885 435.998 178.159 434.013 167.581C432.365 158.003 429.717 148.263 424.935 139.847L424.921 139.833ZM388.773 208.176C387.449 208.095 386.125 208.055 384.815 208.055C383.505 208.055 382.167 208.095 380.857 208.176C380.695 208.176 380.033 208.338 379.533 208.338C379.533 203.88 379.857 199.584 380.695 195.126C382.181 187.926 384.626 184.792 386.679 184.792C388.732 184.792 390.353 187.885 390.272 193.154C390.11 197.45 389.448 202.732 388.786 208.176H388.773Z" fill="white"/>
<path d="M336.968 138.293C331.74 140.941 325.31 142.4 318.083 142.4C315.652 142.4 313.18 142.225 310.775 141.887C306.358 141.279 301.022 139.536 296.524 135.213C294.39 136.996 291.85 138.415 289.108 139.266C284.069 140.86 277.369 141.738 270.223 141.738C266.954 141.738 260.605 141.522 254.107 140.131C257.484 147.372 259.997 155.842 261.74 165.879C264.05 178.226 264.171 190.358 264.036 199.571C263.86 210.149 262.658 220.375 260.348 230.831V230.912L260.308 230.98C259.646 233.803 258.876 236.964 257.538 240.071C264.023 247.65 273.33 250.649 283.434 250.649C300.023 250.649 318.691 242.625 330.227 233.749C344.357 222.685 353.57 205.515 355.164 187.359C356.798 167.581 349.612 150.208 336.955 138.266L336.968 138.293ZM301.333 186.886C300.225 192.006 297.051 196.95 293.079 200.584C292.444 193.154 292.12 185.724 292.606 178.456C292.971 172.053 294.281 169.635 295.794 169.635C298.888 169.635 302.832 179.78 301.346 186.872L301.333 186.886Z" fill="white"/>
<path d="M243.355 139.833C238.181 130.647 229.941 124.703 220.701 121.826C218.215 130.472 212.515 134.754 207.76 136.848C201.83 139.469 195.197 139.847 187.74 140.05C186.835 140.077 185.93 140.09 185.025 140.09C181.54 140.09 178.406 139.887 175.542 139.469C175.637 141.563 175.664 143.738 175.691 145.994V146.169V146.223V146.277C175.691 158.26 174.529 185.967 173.327 197.896V197.963L173.313 198.031L173.205 198.95C171.598 212.837 169.639 229.669 160.008 242.611C161.304 243.611 162.79 244.435 164.6 244.989C168.464 246.232 172.706 246.826 176.893 246.826C178.258 246.826 179.608 246.758 180.946 246.637C184.417 246.313 188.213 245.651 191.347 243.827C194.157 242.341 196.629 239.869 198.115 236.897C199.439 234.249 199.601 231.115 199.439 228.143C199.439 227.157 199.277 226.333 199.277 225.333H199.601C201.411 225.333 203.235 225.495 205.22 225.657C205.058 226.981 205.058 228.305 204.896 229.615C204.734 233.911 205.058 239.031 207.868 242.165C210.178 244.813 213.65 245.961 216.946 246.461C220.296 246.921 223.713 247.164 227.104 247.164C229.887 247.164 232.683 246.988 235.425 246.623C238.073 246.124 241.045 245.462 243.355 243.976C245.827 242.327 247.488 239.68 248.636 236.883C249.798 234.411 250.447 231.601 251.109 228.791C253.256 219.051 254.405 209.311 254.58 199.409C254.742 188.845 254.418 178.118 252.432 167.541C250.784 157.963 248.137 148.223 243.355 139.806V139.833ZM207.206 208.176C205.882 208.095 204.558 208.055 203.248 208.055C201.938 208.055 200.6 208.095 199.29 208.176C199.128 208.176 198.466 208.338 197.966 208.338C197.966 203.88 198.291 199.584 199.128 195.126C200.614 187.926 203.059 184.792 205.112 184.792C207.166 184.792 208.787 187.885 208.706 193.154C208.543 197.45 207.882 202.732 207.22 208.176H207.206Z" fill="white"/>
<path d="M166.235 146.264C166.194 142.684 166.167 139.563 165.884 136.861C165.262 136.591 164.641 136.321 164.047 136.01C162.209 135.078 160.534 133.97 159.008 132.728C151.727 136.551 142.987 139.617 132.883 141.846C127.236 143.17 121.59 143.846 116.092 143.846C115.97 143.846 115.862 143.846 115.74 143.846C115.74 143.94 115.74 144.035 115.727 144.116C114.903 159.138 116.227 179.28 117.375 194.464C112.255 183.9 106.811 168.378 102.029 157.652C99.3818 147.75 95.4238 139.158 81.5641 139.158C80.8077 139.158 80.0377 139.158 79.2812 139.158C75.0936 139.158 70.9465 139.28 67.0426 140.82C63.7465 141.981 60.599 143.954 58.2891 146.764C53.6692 152.383 51.8456 160.138 50.6974 167.568C48.8872 179.294 48.3874 191.344 48.0497 203.232C47.8876 213.958 48.5495 225.022 51.3458 235.424C52.3319 238.72 53.3315 242.192 55.4794 244.84C56.9653 246.65 59.2752 247.65 61.4231 248.312C66.0159 249.636 70.9195 250.298 75.8231 250.298C81.3075 250.298 86.8189 249.474 91.9656 247.812C93.7758 247.15 95.5994 245.826 96.7476 244.178C98.5577 241.53 98.8955 238.072 99.2197 234.938C99.5439 231.966 99.3818 224.036 99.2197 221.064C102.192 225.022 108.797 238.072 112.255 241.206C117.686 246.056 122.859 246.853 129.519 246.853C130.343 246.853 131.194 246.853 132.059 246.826C137.84 246.664 144.27 245.502 148.566 241.382C160.291 230.156 162.101 212.661 163.912 196.977C165.06 185.427 166.221 157.855 166.221 146.291L166.235 146.264Z" fill="white"/>
<path d="M415.114 56.5224C411.291 78.0289 397.756 92.4702 374.778 99.6166C374.819 100.035 374.846 100.454 374.873 100.873C375.724 111.086 375.386 125.905 387.638 129.647C391.623 130.931 396 131.539 400.323 131.539C401.728 131.539 403.119 131.471 404.497 131.35C408.076 131.012 411.994 130.323 415.222 128.459C418.113 126.932 420.666 124.365 422.206 121.312C423.571 118.583 423.746 115.355 423.571 112.288C423.571 111.261 423.395 110.41 423.395 109.397H423.733C425.61 109.397 427.475 109.573 429.528 109.735C429.352 111.099 429.352 112.464 429.19 113.828C429.015 118.259 429.366 123.528 432.257 126.77C434.634 129.499 438.214 130.688 441.618 131.201C445.076 131.674 448.588 131.931 452.1 131.931C454.978 131.931 457.855 131.755 460.692 131.377C463.421 130.863 466.487 130.188 468.864 128.648C471.418 126.946 473.12 124.217 474.308 121.326C475.497 118.773 476.186 115.882 476.861 112.977C479.077 102.926 480.266 92.889 480.441 82.6626C480.617 71.7607 480.266 60.6967 478.226 49.7948C476.524 39.9196 473.795 29.8688 468.864 21.1824C461.016 7.26793 446.373 0.526855 431.622 0.526855C421.072 0.526855 410.467 3.9852 402.268 10.7398C413.102 22.4792 418.113 39.2171 415.114 56.5224ZM423.233 78.2316C424.773 70.8015 427.299 67.5728 429.406 67.5728C431.514 67.5728 433.189 70.761 433.108 76.1917C432.932 80.6227 432.257 86.0669 431.581 91.6867C430.217 91.6057 428.852 91.5651 427.488 91.5651C426.124 91.5651 424.759 91.6057 423.395 91.6867C423.219 91.6867 422.544 91.8623 422.031 91.8623C422.031 87.2692 422.368 82.8382 423.219 78.2451L423.233 78.2316Z" fill="white"/>
<path d="M303.319 48.8356V48.9167L303.332 48.9977C304.386 60.1563 304.926 68.7211 305.075 76.8266C305.102 78.7179 305.129 80.5822 305.169 82.4194C305.331 92.3081 305.493 101.643 304.899 112.14C304.737 116.665 304.521 122.15 302.211 127.472C304.48 130.066 307.641 131.917 312.072 132.525C314.058 132.795 316.071 132.944 318.083 132.944C328.458 132.944 338.481 129.161 340.98 120.61C343.52 111.248 338.9 96.0907 353.502 94.3885C383.896 90.8086 401.633 78.3802 405.807 54.8877C409.238 35.1373 400.147 16.5757 383.599 8.4027C371.874 2.5127 358.96 0 346.086 0C338.022 0 329.957 0.986169 322.203 2.75587C310.681 5.51174 302.724 13.0904 298.672 23.9518C301.427 32.1518 302.387 40.514 303.292 48.633L303.319 48.8221V48.8356ZM344.114 43.459C344.276 38.9739 346.559 36.88 348.977 36.88C353.084 36.88 357.595 42.9051 352.908 53.5098C349.693 60.8048 347.586 63.5876 346.235 63.5876C343.452 63.5876 343.817 51.8347 344.114 43.4725V43.459Z" fill="white"/>
<path d="M182.053 20.588V20.6825C183.215 30.5577 182.121 39.5008 178.825 47.2686L178.798 47.3361L178.771 47.4037C176.191 53.1991 171.233 59.8051 161.696 62.9797C167.653 63.8984 172.854 66.6137 176.947 70.9501C182.837 77.1914 185.768 86.3236 185.214 96.6716C185.174 98.8061 184.769 100.616 184.404 102.224L184.309 102.629C182.215 112.329 176.623 120.596 167.761 127.243C172.57 129.877 178.69 130.62 185.052 130.62C185.876 130.62 186.7 130.62 187.524 130.593C199.79 130.255 210.853 129.566 212.38 115.436C213.271 108.289 210.907 91.1058 210.191 81.4333C210.151 80.9604 210.529 80.6632 210.921 80.6632C211.164 80.6632 211.394 80.7848 211.542 81.0415C214.055 85.8237 218.823 94.1049 219.715 94.9965C221.971 97.2525 225.172 98.3738 228.441 98.3738C230.846 98.3738 233.291 97.7523 235.385 96.523C238.167 94.8479 244.233 85.8102 247.394 79.2988C247.515 79.0556 247.731 78.9341 247.948 78.9341C248.299 78.9341 248.65 79.2178 248.596 79.6501C246.57 95.5774 239.086 123.19 247.475 127.851C252.784 130.85 261.726 132.268 270.277 132.268C276.275 132.268 282.083 131.566 286.298 130.242C289.027 129.391 291.58 127.513 292.769 125.298C295.146 121.204 295.322 116.273 295.497 111.68C296.173 99.5896 295.835 89.0389 295.673 76.9482C295.497 67.9241 294.822 58.9 293.971 49.8758C292.944 40.6761 291.931 31.3142 288.176 22.8035C284.096 13.7794 276.261 7.98392 266.211 6.79511C263.131 6.38984 259.848 5.97105 256.606 5.97105C251.797 5.97105 247.083 6.87617 243.22 10.0238C238.451 13.7658 235.56 19.2235 233.169 24.4921C230.994 28.8421 229.684 33.4217 228.293 37.9473C228.198 38.2445 227.942 38.3931 227.698 38.3931C227.415 38.3931 227.145 38.2174 227.077 37.8797C225.929 32.2599 224.416 26.7346 222.781 21.0878C221.417 16.3191 219.89 11.2126 216.311 7.47057C213.92 4.91734 210.516 3.21518 206.949 2.52621C202.748 1.6211 198.318 1.24284 193.914 1.24284C191.712 1.24284 189.524 1.33741 187.362 1.51303C182.999 1.94532 178.906 3.47186 175.394 5.80894C178.987 9.91573 181.297 14.8871 182.067 20.5069V20.6015L182.053 20.588Z" fill="white"/>
<path d="M82.4152 119.529C87.1836 125.487 94.5052 130.093 102.164 132.471C106.595 133.808 111.323 134.403 116.092 134.403C120.86 134.403 126.007 133.768 130.775 132.633C149.336 128.54 170.963 119.691 175.043 100.616C175.38 99.0898 175.718 97.7253 175.718 96.3609C176.542 82.4059 169.45 72.0849 156.928 72.0849C153.861 72.0849 150.457 72.7063 146.769 74.0437C140.637 76.0836 129.235 82.3924 123.44 85.2834C122.468 85.7832 121.59 85.9994 120.82 85.9994C116.889 85.9994 116.024 80.3255 121.738 78.4748C125.993 77.1103 130.762 76.7726 135.017 75.2326C136.895 74.7192 138.597 73.706 139.785 72.3416C142.176 69.4506 141.663 64.6819 138.934 62.2908C137.057 60.5886 134.166 59.8997 131.437 59.8997C131.032 59.8861 130.64 59.8726 130.235 59.8726C126.885 59.8726 123.548 60.467 120.198 60.9263C119.928 60.9534 119.671 60.9669 119.428 60.9669C118.037 60.9669 117.253 60.4805 116.956 58.8865C115.957 54.0097 118.928 51.0782 122.832 51.0782C123.575 51.0782 124.345 51.1862 125.129 51.4024C132.369 53.3747 140.92 55.4416 148.755 55.4416C157.873 55.4416 166.046 52.6317 170.071 43.5671C172.962 36.7584 173.476 29.0988 172.624 21.7768C170.922 9.34835 158.495 3.72853 146.567 2.70184C141.217 2.29656 135.233 1.95883 129.087 1.95883C106.865 1.95883 82.2666 6.41686 75.742 28.4233C71.6489 41.8784 70.6358 56.1846 70.6358 70.1396C70.6358 78.6504 70.9735 87.1612 72.6756 95.6854C74.202 104.034 76.9307 112.545 82.3746 119.529H82.4152Z" fill="white"/>
<path d="M68.2448 111.086C68.2448 117.489 63.8681 123.082 60.9232 126.122C59.5859 127.5 56.9923 127.5 55.6549 126.122C52.7101 123.082 48.3334 117.476 48.3334 111.086C48.3334 101.427 52.7912 93.605 58.2891 93.605C63.787 93.605 68.2448 101.427 68.2448 111.086Z" fill="white"/>
<path d="M25.2745 154.059C31.6775 154.059 37.27 149.682 40.3094 146.737C41.6872 145.399 41.6872 142.805 40.3094 141.468C37.27 138.523 31.664 134.146 25.2745 134.146C15.6159 134.146 7.79456 138.604 7.79456 144.102C7.79456 149.601 15.6159 154.059 25.2745 154.059Z" fill="white"/>
<path d="M35.9056 100.738C44.1728 109.005 46.7799 120.853 47.6039 127.891C47.9686 131.066 45.2399 133.808 42.0519 133.444C35.0141 132.619 23.1672 130.012 14.9 121.745C2.43171 109.262 -2.97166 94.4561 2.82346 88.6606C8.61857 82.8652 23.4238 88.2689 35.8921 100.738H35.9056Z" fill="white"/>
<path d="M507.755 101.265C507.755 107.668 512.132 113.261 515.077 116.3C516.414 117.678 519.008 117.678 520.345 116.3C523.29 113.261 527.667 107.655 527.667 101.265C527.667 91.6056 523.209 83.7838 517.711 83.7838C512.213 83.7838 507.755 91.6056 507.755 101.265Z" fill="white"/>
<path d="M550.726 144.237C544.323 144.237 538.73 139.86 535.691 136.915C534.313 135.578 534.313 132.984 535.691 131.647C538.73 128.702 544.336 124.325 550.726 124.325C560.384 124.325 568.205 128.783 568.205 134.281C568.205 139.779 560.384 144.237 550.726 144.237Z" fill="white"/>
<path d="M540.094 90.9167C531.827 99.1843 529.22 111.032 528.396 118.07C528.031 121.245 530.76 123.987 533.948 123.622C540.986 122.798 552.833 120.191 561.1 111.923C573.568 99.4545 578.972 84.6484 573.177 78.853C567.381 73.0576 552.576 78.4612 540.108 90.9302L540.094 90.9167Z" fill="white"/>
<path d="M79.7135 270.953C79.4163 270.291 79.0515 269.805 78.6328 269.521C78.214 269.238 77.7277 269.089 77.2009 269.089C76.6741 269.089 76.1607 269.238 75.742 269.521C75.3232 269.805 74.9585 270.291 74.6613 270.953L65.5701 291.096C65.3405 291.622 65.2594 292.095 65.327 292.527C65.3945 292.946 65.5971 293.297 65.9349 293.541C66.2726 293.797 66.7048 293.919 67.2587 293.919C67.8531 293.919 68.3123 293.77 68.6365 293.473C68.9607 293.176 69.2714 292.69 69.5686 292.028L71.2572 288.029H83.1041L84.8196 292.028C85.0898 292.676 85.414 293.149 85.7652 293.46C86.1165 293.77 86.6163 293.919 87.2647 293.919C87.7915 293.919 88.2238 293.797 88.5345 293.554C88.8587 293.311 89.0478 292.973 89.1153 292.541C89.1829 292.109 89.0883 291.622 88.8452 291.096L79.7135 270.953ZM77.1334 274.155H77.2009L81.5911 284.517H72.7701L77.1334 274.155Z" fill="white"/>
<path d="M110.567 269.103C109.851 269.103 109.31 269.292 108.932 269.656C108.554 270.021 108.365 270.589 108.365 271.345V283.679C108.365 285.854 107.865 287.502 106.879 288.583C105.893 289.677 104.447 290.217 102.543 290.217C100.638 290.217 99.1791 289.677 98.193 288.583C97.2069 287.489 96.6935 285.854 96.6935 283.679V271.345C96.6935 270.589 96.5044 270.021 96.1262 269.656C95.748 269.292 95.2076 269.103 94.4917 269.103C93.7757 269.103 93.2354 269.292 92.8572 269.656C92.4789 270.021 92.2898 270.589 92.2898 271.345V283.706C92.2898 285.408 92.5059 286.894 92.9382 288.178C93.3705 289.461 94.0324 290.542 94.8969 291.393C95.775 292.257 96.8421 292.906 98.1119 293.338C99.3817 293.77 100.868 293.986 102.543 293.986C104.772 293.986 106.636 293.608 108.162 292.838C109.675 292.068 110.823 290.92 111.593 289.38C112.363 287.84 112.742 285.949 112.742 283.692V271.332C112.742 270.575 112.552 270.008 112.174 269.643C111.796 269.278 111.256 269.089 110.567 269.089V269.103Z" fill="white"/>
<path d="M134.855 269.373H117.01C116.416 269.373 115.943 269.521 115.619 269.832C115.295 270.143 115.119 270.602 115.119 271.197C115.119 271.791 115.281 272.223 115.619 272.561C115.957 272.899 116.416 273.061 117.01 273.061H123.724V291.663C123.724 292.379 123.913 292.933 124.291 293.338C124.67 293.743 125.21 293.946 125.926 293.946C126.642 293.946 127.209 293.743 127.574 293.338C127.939 292.933 128.128 292.379 128.128 291.663V273.061H134.841C135.436 273.061 135.909 272.899 136.233 272.561C136.57 272.223 136.733 271.777 136.733 271.197C136.733 270.616 136.57 270.143 136.233 269.832C135.895 269.521 135.436 269.373 134.841 269.373H134.855Z" fill="white"/>
<path d="M158.373 269.103C157.657 269.103 157.117 269.292 156.739 269.684C156.36 270.075 156.171 270.643 156.171 271.372V279.505H143.676V271.372C143.676 270.643 143.487 270.075 143.109 269.684C142.73 269.292 142.19 269.103 141.474 269.103C140.758 269.103 140.218 269.292 139.84 269.684C139.461 270.075 139.272 270.643 139.272 271.372V291.663C139.272 292.379 139.461 292.933 139.84 293.338C140.218 293.743 140.758 293.946 141.474 293.946C142.19 293.946 142.757 293.743 143.122 293.338C143.487 292.933 143.676 292.379 143.676 291.663V283.193H156.171V291.663C156.171 292.379 156.36 292.933 156.739 293.338C157.117 293.743 157.657 293.946 158.373 293.946C159.089 293.946 159.629 293.743 160.008 293.338C160.386 292.933 160.575 292.379 160.575 291.663V271.372C160.575 270.643 160.386 270.075 160.008 269.684C159.629 269.292 159.089 269.103 158.373 269.103Z" fill="white"/>
<path d="M180.513 272.885C181.081 272.885 181.527 272.737 181.837 272.426C182.148 272.115 182.296 271.669 182.296 271.102C182.296 270.535 182.148 270.129 181.837 269.832C181.527 269.535 181.081 269.386 180.513 269.386H168.221C167.464 269.386 166.883 269.589 166.478 269.994C166.073 270.399 165.87 270.98 165.87 271.737V291.339C165.87 292.095 166.073 292.676 166.478 293.081C166.883 293.487 167.464 293.689 168.221 293.689H180.513C181.081 293.689 181.527 293.541 181.837 293.243C182.148 292.946 182.296 292.514 182.296 291.933C182.296 291.352 182.148 290.92 181.837 290.623C181.527 290.326 181.081 290.177 180.513 290.177H170.112V283.112H179.757C180.351 283.112 180.797 282.963 181.094 282.666C181.391 282.369 181.54 281.936 181.54 281.355C181.54 280.775 181.391 280.342 181.094 280.045C180.797 279.748 180.351 279.599 179.757 279.599H170.112V272.912H180.513V272.885Z" fill="white"/>
<path d="M204.869 269.103C204.207 269.103 203.694 269.292 203.343 269.656C202.991 270.021 202.802 270.535 202.802 271.21V286.34L190.51 270.386C190.145 269.927 189.821 269.602 189.564 269.4C189.307 269.197 188.902 269.103 188.375 269.103C187.808 269.103 187.335 269.292 186.984 269.67C186.633 270.048 186.444 270.589 186.444 271.305V291.798C186.444 292.487 186.619 293.014 186.984 293.379C187.335 293.743 187.848 293.932 188.51 293.932C189.172 293.932 189.686 293.743 190.023 293.379C190.361 293.014 190.537 292.487 190.537 291.798V276.627L202.829 292.622C203.194 293.081 203.532 293.419 203.842 293.622C204.153 293.824 204.572 293.932 205.099 293.932C205.626 293.932 206.085 293.743 206.409 293.379C206.733 293.014 206.895 292.5 206.895 291.866V271.197C206.895 270.535 206.72 270.008 206.382 269.643C206.044 269.278 205.531 269.089 204.869 269.089V269.103Z" fill="white"/>
<path d="M229.184 269.373H211.34C210.745 269.373 210.272 269.521 209.948 269.832C209.624 270.143 209.448 270.602 209.448 271.197C209.448 271.791 209.611 272.223 209.948 272.561C210.286 272.899 210.745 273.061 211.34 273.061H218.053V291.663C218.053 292.379 218.242 292.933 218.621 293.338C218.999 293.743 219.539 293.946 220.255 293.946C220.971 293.946 221.538 293.743 221.903 293.338C222.268 292.933 222.457 292.379 222.457 291.663V273.061H229.171C229.765 273.061 230.238 272.899 230.562 272.561C230.9 272.223 231.062 271.777 231.062 271.197C231.062 270.616 230.9 270.143 230.562 269.832C230.224 269.521 229.765 269.373 229.171 269.373H229.184Z" fill="white"/>
<path d="M235.79 269.103C235.074 269.103 234.534 269.292 234.155 269.684C233.777 270.075 233.588 270.643 233.588 271.372V291.663C233.588 292.379 233.777 292.933 234.155 293.338C234.534 293.743 235.074 293.946 235.79 293.946C236.506 293.946 237.073 293.743 237.438 293.338C237.803 292.933 237.992 292.379 237.992 291.663V271.372C237.992 270.643 237.803 270.075 237.424 269.684C237.046 269.292 236.506 269.103 235.79 269.103Z" fill="white"/>
<path d="M262.104 288.758C261.834 288.502 261.496 288.367 261.091 288.326C260.686 288.286 260.24 288.421 259.727 288.718C258.97 289.177 258.16 289.515 257.322 289.731C256.471 289.947 255.607 290.055 254.742 290.055C253.108 290.055 251.73 289.718 250.609 289.056C249.487 288.394 248.636 287.408 248.056 286.124C247.488 284.841 247.191 283.287 247.191 281.477C247.191 279.667 247.475 278.086 248.056 276.83C248.623 275.573 249.474 274.601 250.609 273.939C251.73 273.277 253.108 272.939 254.742 272.939C255.593 272.939 256.431 273.047 257.255 273.25C258.079 273.453 258.849 273.79 259.565 274.25C260.065 274.574 260.537 274.709 260.956 274.682C261.375 274.641 261.74 274.493 262.023 274.223C262.307 273.952 262.496 273.615 262.591 273.209C262.685 272.804 262.645 272.399 262.483 271.967C262.32 271.548 261.996 271.183 261.523 270.886C260.605 270.291 259.538 269.832 258.322 269.508C257.106 269.184 255.863 269.022 254.607 269.022C252.729 269.022 251.027 269.319 249.528 269.9C248.029 270.481 246.759 271.318 245.719 272.412C244.678 273.507 243.895 274.817 243.341 276.344C242.787 277.87 242.517 279.586 242.517 281.491C242.517 284.044 243.003 286.246 243.962 288.124C244.922 290.001 246.313 291.447 248.11 292.46C249.906 293.473 252.081 293.986 254.607 293.986C255.917 293.986 257.201 293.811 258.484 293.446C259.767 293.081 260.848 292.582 261.767 291.92C262.185 291.622 262.456 291.271 262.591 290.866C262.726 290.461 262.753 290.069 262.658 289.691C262.564 289.312 262.388 289.002 262.104 288.745V288.758Z" fill="white"/>
<path d="M292.755 271.372C291.31 270.035 289.256 269.373 286.595 269.373H278.301C277.585 269.373 277.045 269.562 276.653 269.94C276.261 270.318 276.072 270.872 276.072 271.615V291.663C276.072 292.379 276.261 292.933 276.639 293.338C277.018 293.743 277.558 293.946 278.274 293.946C278.99 293.946 279.557 293.743 279.922 293.338C280.287 292.933 280.476 292.379 280.476 291.663V284.571H286.609C289.27 284.571 291.323 283.895 292.768 282.558C294.214 281.22 294.943 279.343 294.943 276.965C294.943 274.587 294.214 272.723 292.768 271.386L292.755 271.372ZM289.445 280.032C288.635 280.734 287.46 281.085 285.893 281.085H280.449V272.858H285.893C287.46 272.858 288.635 273.196 289.445 273.885C290.242 274.574 290.648 275.6 290.648 276.951C290.648 278.302 290.242 279.329 289.445 280.032Z" fill="white"/>
<path d="M308.695 270.953C308.398 270.291 308.033 269.805 307.614 269.521C307.195 269.238 306.709 269.089 306.182 269.089C305.656 269.089 305.142 269.238 304.723 269.521C304.305 269.805 303.94 270.291 303.643 270.953L294.552 291.096C294.322 291.622 294.241 292.095 294.308 292.527C294.376 292.946 294.579 293.297 294.916 293.541C295.254 293.797 295.686 293.919 296.24 293.919C296.834 293.919 297.294 293.77 297.618 293.473C297.942 293.176 298.253 292.69 298.55 292.028L300.239 288.029H312.086L313.801 292.028C314.071 292.676 314.395 293.149 314.747 293.46C315.098 293.77 315.598 293.919 316.246 293.919C316.773 293.919 317.205 293.797 317.516 293.554C317.84 293.311 318.029 292.973 318.097 292.541C318.164 292.109 318.07 291.622 317.827 291.096L308.695 270.953ZM306.115 274.155H306.182L310.573 284.517H301.752L306.115 274.155Z" fill="white"/>
<path d="M337.9 286.178C337.373 285.192 336.752 284.463 336.063 284.003C335.739 283.787 335.388 283.625 335.009 283.517C335.604 283.382 336.171 283.206 336.671 282.977C337.914 282.409 338.859 281.572 339.508 280.491C340.156 279.41 340.494 278.127 340.494 276.641C340.494 274.344 339.764 272.561 338.319 271.291C336.874 270.021 334.82 269.386 332.159 269.386H323.865C323.149 269.386 322.609 269.575 322.217 269.954C321.825 270.332 321.636 270.886 321.636 271.629V291.676C321.636 292.392 321.825 292.946 322.203 293.352C322.582 293.757 323.122 293.959 323.838 293.959C324.554 293.959 325.121 293.757 325.486 293.352C325.851 292.946 326.04 292.392 326.04 291.676V283.963H329.309C330.187 283.963 330.903 284.098 331.457 284.354C332.024 284.625 332.51 285.138 332.916 285.921L336.401 292.325C336.698 292.879 337.049 293.284 337.427 293.541C337.806 293.797 338.319 293.932 338.94 293.932C339.562 293.932 340.034 293.784 340.345 293.5C340.656 293.216 340.845 292.838 340.859 292.379C340.886 291.92 340.75 291.447 340.48 290.96L337.9 286.178ZM331.389 280.666H326.013V272.845H331.389C332.97 272.845 334.172 273.169 334.982 273.831C335.793 274.479 336.198 275.452 336.198 276.735C336.198 278.019 335.793 279.032 334.982 279.68C334.172 280.329 332.97 280.666 331.389 280.666Z" fill="white"/>
<path d="M357.501 270.953C357.204 270.291 356.839 269.805 356.42 269.521C356.002 269.238 355.515 269.089 354.988 269.089C354.462 269.089 353.948 269.238 353.529 269.521C353.111 269.805 352.746 270.291 352.449 270.953L343.358 291.096C343.128 291.622 343.047 292.095 343.114 292.527C343.182 292.946 343.385 293.297 343.722 293.541C344.06 293.797 344.492 293.919 345.046 293.919C345.641 293.919 346.1 293.77 346.424 293.473C346.748 293.176 347.059 292.69 347.356 292.028L349.045 288.029H360.892L362.607 292.028C362.877 292.676 363.202 293.149 363.553 293.46C363.904 293.77 364.404 293.919 365.052 293.919C365.579 293.919 366.011 293.797 366.322 293.554C366.646 293.311 366.835 292.973 366.903 292.541C366.97 292.109 366.876 291.622 366.633 291.096L357.501 270.953ZM354.921 274.155H354.988L359.379 284.517H350.558L354.921 274.155Z" fill="white"/>
<path d="M388.354 280.531H382.667C382.1 280.531 381.654 280.666 381.343 280.95C381.033 281.22 380.884 281.626 380.884 282.152C380.884 282.679 381.046 283.058 381.343 283.355C381.654 283.652 382.1 283.801 382.667 283.801H386.449V289.447C385.828 289.637 385.193 289.812 384.558 289.934C383.613 290.123 382.681 290.204 381.762 290.204C379.101 290.204 377.088 289.474 375.737 288.002C374.386 286.529 373.711 284.381 373.711 281.558C373.711 279.694 374.008 278.127 374.589 276.843C375.17 275.56 376.048 274.574 377.223 273.898C378.398 273.223 379.83 272.885 381.532 272.885C382.64 272.885 383.64 273.007 384.531 273.223C385.423 273.453 386.314 273.817 387.179 274.331C387.638 274.587 388.057 274.668 388.435 274.601C388.813 274.533 389.124 274.358 389.381 274.087C389.637 273.817 389.8 273.48 389.894 273.101C389.989 272.723 389.975 272.345 389.84 271.98C389.705 271.615 389.448 271.305 389.07 271.048C387.922 270.318 386.693 269.792 385.396 269.481C384.099 269.17 382.802 269.022 381.519 269.022C379.574 269.022 377.818 269.319 376.278 269.9C374.738 270.481 373.441 271.318 372.374 272.412C371.306 273.507 370.496 274.817 369.929 276.357C369.361 277.897 369.091 279.626 369.091 281.558C369.091 284.111 369.577 286.313 370.536 288.178C371.496 290.042 372.9 291.474 374.751 292.487C376.602 293.5 378.871 294 381.559 294C382.816 294 384.112 293.878 385.423 293.635C386.733 293.392 387.895 293.095 388.908 292.717C389.34 292.555 389.664 292.298 389.854 291.96C390.043 291.609 390.151 291.19 390.151 290.69V282.315C390.151 281.747 389.989 281.301 389.691 280.991C389.381 280.68 388.935 280.531 388.368 280.531H388.354Z" fill="white"/>
<path d="M413.358 269.103C412.642 269.103 412.102 269.292 411.724 269.656C411.346 270.021 411.156 270.589 411.156 271.345V283.679C411.156 285.854 410.657 287.502 409.67 288.583C408.684 289.677 407.239 290.217 405.334 290.217C403.43 290.217 401.971 289.677 400.985 288.583C399.998 287.489 399.485 285.854 399.485 283.679V271.345C399.485 270.589 399.296 270.021 398.918 269.656C398.54 269.292 397.999 269.103 397.283 269.103C396.567 269.103 396.027 269.292 395.649 269.656C395.27 270.021 395.081 270.589 395.081 271.345V283.706C395.081 285.408 395.297 286.894 395.73 288.178C396.162 289.461 396.824 290.542 397.688 291.393C398.567 292.257 399.634 292.906 400.903 293.338C402.173 293.77 403.659 293.986 405.334 293.986C407.563 293.986 409.427 293.608 410.954 292.838C412.467 292.068 413.615 290.92 414.385 289.38C415.155 287.84 415.533 285.949 415.533 283.692V271.332C415.533 270.575 415.344 270.008 414.966 269.643C414.588 269.278 414.047 269.089 413.358 269.089V269.103Z" fill="white"/>
<path d="M433.202 270.953C432.905 270.291 432.54 269.805 432.121 269.521C431.703 269.238 431.216 269.089 430.69 269.089C430.163 269.089 429.649 269.238 429.231 269.521C428.812 269.805 428.447 270.291 428.15 270.953L419.059 291.096C418.829 291.622 418.748 292.095 418.816 292.527C418.883 292.946 419.086 293.297 419.423 293.541C419.761 293.797 420.193 293.919 420.747 293.919C421.342 293.919 421.801 293.77 422.125 293.473C422.449 293.176 422.76 292.69 423.057 292.028L424.746 288.029H436.593L438.308 292.028C438.578 292.676 438.903 293.149 439.254 293.46C439.605 293.77 440.105 293.919 440.753 293.919C441.28 293.919 441.712 293.797 442.023 293.554C442.347 293.311 442.536 292.973 442.604 292.541C442.672 292.109 442.577 291.622 442.334 291.096L433.202 270.953ZM430.608 274.155H430.676L435.066 284.517H426.245L430.608 274.155Z" fill="white"/>
<path d="M461.408 272.156C461.745 271.656 461.921 271.17 461.908 270.71C461.908 270.251 461.718 269.873 461.394 269.562C461.057 269.251 460.597 269.103 460.003 269.103C459.503 269.103 459.071 269.211 458.733 269.427C458.395 269.643 458.031 270.008 457.666 270.508L451.952 278.573L446.265 270.508C445.927 270.021 445.562 269.67 445.184 269.44C444.806 269.211 444.387 269.103 443.928 269.103C443.306 269.103 442.82 269.265 442.482 269.602C442.145 269.94 441.942 270.332 441.915 270.805C441.875 271.278 442.01 271.723 442.307 272.129L449.682 282.49V291.622C449.682 292.352 449.872 292.919 450.25 293.325C450.628 293.73 451.168 293.932 451.884 293.932C453.357 293.932 454.086 293.162 454.086 291.622V282.544L461.421 272.169L461.408 272.156Z" fill="white"/>
<path d="M475.632 270.953C475.335 270.291 474.97 269.805 474.551 269.521C474.133 269.238 473.646 269.089 473.12 269.089C472.593 269.089 472.079 269.238 471.661 269.521C471.242 269.805 470.877 270.291 470.58 270.953L461.489 291.096C461.259 291.622 461.178 292.095 461.246 292.527C461.313 292.946 461.516 293.297 461.854 293.541C462.191 293.797 462.624 293.919 463.177 293.919C463.772 293.919 464.231 293.77 464.555 293.473C464.879 293.176 465.19 292.69 465.487 292.028L467.176 288.029H479.023L480.738 292.028C481.009 292.676 481.333 293.149 481.684 293.46C482.035 293.77 482.535 293.919 483.183 293.919C483.71 293.919 484.143 293.797 484.453 293.554C484.777 293.311 484.967 292.973 485.034 292.541C485.102 292.109 485.007 291.622 484.764 291.096L475.632 270.953ZM473.039 274.155H473.106L477.496 284.517H468.675L473.039 274.155Z" fill="white"/>
<path d="M508.485 269.643C508.147 269.278 507.634 269.089 506.972 269.089C506.31 269.089 505.796 269.278 505.445 269.643C505.094 270.008 504.905 270.521 504.905 271.197V286.327L492.612 270.372C492.247 269.913 491.923 269.589 491.667 269.386C491.41 269.184 491.005 269.089 490.478 269.089C489.911 269.089 489.438 269.278 489.087 269.656C488.735 270.035 488.546 270.575 488.546 271.291V291.784C488.546 292.473 488.722 293 489.087 293.365C489.438 293.73 489.951 293.919 490.613 293.919C491.275 293.919 491.788 293.73 492.126 293.365C492.464 293 492.639 292.473 492.639 291.784V276.614L504.932 292.609C505.297 293.068 505.634 293.406 505.945 293.608C506.256 293.811 506.675 293.919 507.201 293.919C507.728 293.919 508.187 293.73 508.512 293.365C508.836 293 508.998 292.487 508.998 291.852V271.183C508.998 270.521 508.822 269.994 508.485 269.629V269.643Z" fill="white"/>
</g>
<defs>
<clipPath id="clip0_139_208">
<rect width="575" height="294" fill="white" transform="translate(0.5)"/>
</clipPath>
</defs>
</svg>
