<svg width="25" height="25" viewBox="0 0 25 25" fill="none" xmlns="http://www.w3.org/2000/svg">
<path d="M12.5 0C19.4036 0 25 5.59644 25 12.5C25 19.4036 19.4036 25 12.5 25C5.59644 25 0 19.4036 0 12.5C0 5.59644 5.59644 0 12.5 0ZM18.7256 5.83496C18.509 5.84431 18.3104 5.90573 18.1357 5.97363C17.9743 6.03635 17.3945 6.27633 16.4717 6.6582C15.5486 7.04016 14.3252 7.54694 13.0215 8.08789C10.4138 9.16991 7.48294 10.3873 5.98145 11.0107C5.92951 11.032 5.72021 11.0955 5.48926 11.2695C5.25754 11.4443 5.0001 11.8229 5 12.2373C5 12.5718 5.16967 12.9124 5.37402 13.1074C5.57831 13.3024 5.78496 13.394 5.95801 13.4619V13.46C6.54284 13.6898 8.28904 14.3793 8.70605 14.5439C8.85362 14.9802 9.48797 16.8487 9.63867 17.3184H9.63672C9.74319 17.6506 9.84712 17.8671 9.99121 18.0479C10.0633 18.1383 10.1494 18.2205 10.2549 18.2852C10.2954 18.31 10.3407 18.3286 10.3857 18.3467C10.3919 18.3492 10.3981 18.3501 10.4043 18.3525L10.3867 18.3486C10.3997 18.3538 10.4115 18.3617 10.4248 18.3662C10.4465 18.3736 10.462 18.373 10.4912 18.3789C10.5938 18.41 10.6962 18.4306 10.791 18.4307C11.1988 18.4307 11.4492 18.2129 11.4492 18.2129L11.4648 18.2012L13.2266 16.7314L15.3828 18.7002C15.4231 18.7563 15.7325 19.167 16.4453 19.167C16.8712 19.1668 17.2083 18.9584 17.4238 18.7402C17.6392 18.522 17.7736 18.2987 17.834 17.9961L17.835 17.9941L19.9434 7.54004C20.0076 7.2572 20.026 6.98381 19.9502 6.70508C19.8743 6.42623 19.6695 6.15355 19.4229 6.01074C19.1763 5.8681 18.9422 5.82566 18.7256 5.83496ZM16.3623 17.71C16.3633 17.7052 16.3616 17.7088 16.3623 17.7051H16.3643L16.3623 17.71ZM16.3848 17.5996L13.2705 14.7568L11.165 16.5127L11.748 14.2637C11.7806 14.2311 15.7714 10.2456 16.0127 10.0127C16.2073 9.82581 16.248 9.76035 16.248 9.69531C16.248 9.60873 16.2029 9.5459 16.0986 9.5459C16.0049 9.54618 15.8779 9.63538 15.8105 9.67676C14.9525 10.2045 11.2987 12.2582 9.50195 13.2666C9.39297 13.2235 7.76998 12.5809 6.89551 12.2363C8.4514 11.5903 11.1186 10.4828 13.6025 9.45215C14.9061 8.91123 16.1295 8.40409 17.0518 8.02246C17.8295 7.70062 18.2356 7.5342 18.4297 7.45508C18.3472 7.86342 16.4995 17.0223 16.3848 17.5996Z" fill="#202020"/>
</svg>
