<svg width="25" height="25" viewBox="0 0 25 25" fill="none" xmlns="http://www.w3.org/2000/svg">
<path d="M21.3473 3.66C18.9897 1.30125 15.8545 0.00125 12.5144 0C5.63153 0 0.0300016 5.59875 0.0275015 12.4812C0.0262514 14.6812 0.60128 16.8287 1.69383 18.7212L0 25L6.54158 23.4538C8.36542 24.4488 10.418 24.9725 12.5081 24.9738H12.5131C19.3947 24.9738 24.9962 19.3738 25 12.4925C25.0025 9.15625 23.7049 6.02 21.3473 3.66ZM18.6234 16.9425C18.3634 17.6712 17.0896 18.3737 16.5171 18.425C15.9445 18.4775 15.4083 18.6837 12.7731 17.645C9.60173 16.395 7.59913 13.1437 7.44412 12.9362C7.28786 12.7275 6.17031 11.245 6.17031 9.71C6.17031 8.175 6.9766 7.42 7.26286 7.10875C7.54913 6.79625 7.88664 6.71875 8.0954 6.71875C8.30291 6.71875 8.51167 6.71875 8.69293 6.72625C8.91544 6.735 9.16171 6.74625 9.39547 7.265C9.67298 7.8825 10.2793 9.425 10.3568 9.58125C10.4343 9.7375 10.4868 9.92 10.383 10.1275C10.2793 10.335 10.2268 10.465 10.0718 10.6475C9.91549 10.83 9.74423 11.0537 9.60423 11.1937C9.44797 11.3487 9.28546 11.5187 9.46672 11.83C9.64923 12.1425 10.2743 13.1638 11.2018 13.99C12.3944 15.0525 13.3982 15.3812 13.7107 15.5387C14.0232 15.695 14.2045 15.6688 14.387 15.46C14.5695 15.2525 15.167 14.55 15.3745 14.2375C15.582 13.925 15.7908 13.9775 16.0771 14.0813C16.3633 14.185 17.8971 14.94 18.2084 15.0962C18.5209 15.2525 18.7284 15.33 18.8059 15.46C18.8834 15.5888 18.8834 16.2137 18.6234 16.9425Z" fill="#202020"/>
</svg>
