<svg width="1920" height="1077" viewBox="0 0 1920 1077" fill="none" xmlns="http://www.w3.org/2000/svg">
<path d="M1920 1077H1457.55C1402.85 1077 1349.26 1064.34 1302.99 1040.49C1256.72 1016.63 1219.65 982.557 1196.06 942.2L1119.15 810.48C1055.32 701.276 865.191 701.356 801.488 810.599L724.848 942C701.282 982.416 664.197 1016.55 617.889 1040.44C571.581 1064.33 517.943 1077.01 463.188 1077H0V0H462.772C517.485 0.000550008 571.079 12.6659 617.358 36.5313C663.636 60.3967 700.708 94.4871 724.286 134.86L800.999 266.18C864.824 375.444 1055.08 375.344 1118.73 266.02L1194.96 135.1C1218.51 94.6653 1255.58 60.5144 1301.89 36.6038C1348.2 12.6933 1401.85 0.00188724 1456.62 0H1920V1077Z" fill="url(#paint0_radial_3688_4604)"/>
<defs>
<radialGradient id="paint0_radial_3688_4604" cx="0" cy="0" r="1" gradientUnits="userSpaceOnUse" gradientTransform="translate(960 538.5) scale(960 785.023)">
<stop offset="0.5" stop-color="#D32F2F"/>
<stop offset="1" stop-color="#730200"/>
</radialGradient>
</defs>
</svg>
