<svg width="122" height="41" viewBox="0 0 122 41" fill="none" xmlns="http://www.w3.org/2000/svg">
<g clip-path="url(#clip0_3322_10191)">
<path d="M96.1706 26.2294H93.2559V14.5705H96.1706V26.2294Z" fill="#D2302F"/>
<path d="M52.4561 18.9442C52.4565 18.37 52.3438 17.8013 52.1243 17.2707C51.9049 16.7401 51.583 16.2579 51.1771 15.8517C50.7712 15.4456 50.2893 15.1234 49.7588 14.9035C49.2284 14.6837 48.6598 14.5705 48.0856 14.5705H43.715L41.5297 17.4853H48.0856C48.277 17.4849 48.4666 17.5222 48.6436 17.5952C48.8206 17.6682 48.9815 17.7753 49.117 17.9106C49.2525 18.0458 49.36 18.2064 49.4334 18.3833C49.5067 18.5601 49.5445 18.7496 49.5445 18.9411C49.5445 19.328 49.3908 19.6991 49.1172 19.9727C48.8436 20.2463 48.4725 20.4 48.0856 20.4H40.8003V26.2294H43.715V23.3147H45.8972L48.8119 26.2294H52.4561L49.3652 23.12C50.2594 22.8462 51.0421 22.2928 51.5985 21.5412C52.1548 20.7896 52.4554 19.8793 52.4561 18.9442Z" fill="#D2302F"/>
<path d="M63.3851 17.4884L65.5704 14.5736H56.8293L54.644 17.4884H63.3851Z" fill="#D2302F"/>
<path d="M56.8293 23.3147V21.8589H62.6309L64.7946 18.9442H53.9146V26.2294H63.5767L65.5704 23.2313L56.8293 23.3147Z" fill="#D2302F"/>
<path d="M72.8557 26.2295H67.0293V18.9442H69.944V23.3147H72.8464C73.2292 23.3147 73.6082 23.2393 73.9618 23.0929C74.3154 22.9464 74.6368 22.7317 74.9074 22.461C75.1781 22.1904 75.3928 21.8691 75.5392 21.5154C75.6857 21.1618 75.7611 20.7828 75.7611 20.4C75.7611 20.0172 75.6857 19.6382 75.5392 19.2846C75.3928 18.931 75.1781 18.6096 74.9074 18.339C74.6368 18.0683 74.3154 17.8536 73.9618 17.7071C73.6082 17.5607 73.2292 17.4853 72.8464 17.4853H67.7557L69.944 14.5675H72.8557C73.6215 14.5675 74.3797 14.7183 75.0872 15.0115C75.7947 15.3046 76.4374 15.7343 76.9788 16.276C77.5202 16.8176 77.9495 17.4606 78.2423 18.1682C78.535 18.8758 78.6855 19.6342 78.6851 20.4C78.6855 21.1657 78.535 21.9239 78.2422 22.6313C77.9494 23.3388 77.52 23.9816 76.9786 24.523C76.4372 25.0643 75.7944 25.4937 75.087 25.7865C74.3795 26.0794 73.6213 26.2299 72.8557 26.2295Z" fill="#D2302F"/>
<path d="M91.7994 23.3147C91.7994 24.0878 91.4923 24.8291 90.9457 25.3757C90.399 25.9224 89.6577 26.2294 88.8846 26.2294H80.1436V18.9442H88.149C88.3383 18.9443 88.5202 18.8708 88.6563 18.7393C88.7924 18.6078 88.872 18.4286 88.8785 18.2394C88.8813 18.1421 88.8647 18.0452 88.8295 17.9544C88.7944 17.8636 88.7414 17.7807 88.6737 17.7107C88.606 17.6407 88.525 17.585 88.4354 17.5468C88.3458 17.5086 88.2495 17.4887 88.1521 17.4884H80.8699L83.0552 14.5736H88.8846C89.2674 14.5736 89.6464 14.649 90.0001 14.7955C90.3537 14.942 90.675 15.1567 90.9457 15.4273C91.2163 15.698 91.431 16.0193 91.5775 16.3729C91.724 16.7266 91.7994 17.1056 91.7994 17.4884C91.7994 18.2614 91.4923 19.0028 90.9457 19.5494C90.399 20.096 89.6577 20.4031 88.8846 20.4031C89.6571 20.4031 90.398 20.7097 90.9446 21.2557C91.4911 21.8016 91.7986 22.5422 91.7994 23.3147ZM83.0552 21.8589V23.3147L88.2077 23.2405C88.3871 23.2389 88.5586 23.1672 88.6857 23.0407C88.8128 22.9142 88.8853 22.7429 88.8877 22.5636C88.8898 22.4718 88.8735 22.3805 88.8398 22.2951C88.8061 22.2097 88.7556 22.1319 88.6914 22.0662C88.6272 22.0006 88.5505 21.9484 88.4659 21.9128C88.3812 21.8772 88.2903 21.8589 88.1985 21.8589H83.0552Z" fill="#D2302F"/>
<path d="M109.285 18.9442C109.286 18.37 109.173 17.8013 108.953 17.2707C108.734 16.7401 108.412 16.2579 108.006 15.8517C107.6 15.4456 107.118 15.1234 106.588 14.9035C106.057 14.6837 105.489 14.5705 104.915 14.5705H100.544L98.3558 17.4853H104.915C105.106 17.4853 105.295 17.5229 105.472 17.5961C105.648 17.6692 105.809 17.7765 105.944 17.9117C106.079 18.0469 106.187 18.2073 106.26 18.384C106.333 18.5606 106.37 18.7499 106.37 18.9411C106.371 19.1325 106.334 19.3222 106.261 19.4992C106.188 19.6761 106.08 19.837 105.945 19.9725C105.81 20.108 105.649 20.2155 105.472 20.2889C105.296 20.3622 105.106 20.4 104.915 20.4H97.6294V26.2294H100.544V23.3147H102.726L105.641 26.2294H109.285L106.21 23.12C107.101 22.8426 107.879 22.2879 108.433 21.5367C108.986 20.7855 109.285 19.8771 109.285 18.9442Z" fill="#D2302F"/>
<path d="M116.57 26.2295H110.744V18.9442H113.655V23.3147H116.561C117.334 23.3147 118.075 23.0076 118.622 22.461C119.168 21.9144 119.475 21.173 119.475 20.4C119.475 20.0172 119.4 19.6382 119.254 19.2846C119.107 18.931 118.892 18.6096 118.622 18.339C118.351 18.0683 118.03 17.8536 117.676 17.7071C117.323 17.5607 116.944 17.4853 116.561 17.4853H111.47L113.655 14.5675H116.57C117.336 14.5675 118.094 14.7183 118.802 15.0115C119.509 15.3046 120.152 15.7343 120.693 16.276C121.235 16.8176 121.664 17.4606 121.957 18.1682C122.249 18.8758 122.4 19.6342 122.399 20.4C122.4 21.1657 122.249 21.9239 121.957 22.6313C121.664 23.3388 121.234 23.9816 120.693 24.523C120.152 25.0643 119.509 25.4937 118.801 25.7865C118.094 26.0794 117.336 26.2299 116.57 26.2295Z" fill="#D2302F"/>
<path d="M33.6231 10.9727C33.6231 11.2385 33.6076 11.5044 33.5829 11.7671C33.0506 11.7729 32.5366 11.9617 32.1271 12.3018C31.9752 12.4269 31.8392 12.5702 31.7222 12.7284C31.5396 12.9805 31.4104 13.2672 31.3425 13.571C31.2747 13.8748 31.2695 14.1892 31.3274 14.4951C31.3852 14.801 31.5049 15.0918 31.6791 15.3498C31.8533 15.6077 32.0783 15.8275 32.3404 15.9955C32.1539 16.3579 31.9475 16.7098 31.7222 17.0495C31.0612 18.0258 30.258 18.8978 29.3391 19.6365C28.9755 19.9276 28.5957 20.198 28.2016 20.4464L28.0224 20.5576C27.5029 20.873 26.9605 21.1489 26.3996 21.3829C25.0383 21.954 23.5872 22.2814 22.1126 22.3504C21.9858 22.3504 21.856 22.3504 21.7293 22.3504C21.6263 22.3504 21.5232 22.3504 21.4202 22.3504H21.3182C19.9768 22.4439 18.7203 23.0408 17.8003 24.0215C16.8804 25.0022 16.3649 26.2943 16.3573 27.6389C16.3561 28.0779 16.4112 28.5152 16.5211 28.9402C15.4981 27.3104 14.9569 25.4244 14.9602 23.5002C14.9598 23.0121 14.9939 22.5246 15.0622 22.0413C15.1232 21.6072 15.2131 21.1776 15.3311 20.7555C15.3929 20.536 15.4609 20.3196 15.5351 20.1095C15.7257 19.5623 15.9635 19.0328 16.246 18.5269C16.4332 18.1818 16.6395 17.8474 16.8642 17.5255C17.3776 16.8082 17.98 16.1591 18.6569 15.5936C16.422 15.9668 14.3527 17.0089 12.7224 18.5825L12.4813 18.5547C9.86382 18.2439 7.38376 17.2135 5.31656 15.5782C3.03137 13.7782 1.36624 11.3086 0.554283 8.51525C-0.257678 5.72188 -0.175828 2.74454 0.788375 0C2.14838 2.36145 5.11565 4.43855 8.85874 5.36582C9.43778 5.50821 10.0238 5.62066 10.6144 5.70273C10.8833 5.73673 11.1491 5.76763 11.4149 5.78927C11.7858 5.82327 12.1536 5.83873 12.5153 5.84491C13.5337 5.85242 14.5487 5.96427 15.5444 6.17873L15.8751 6.25909C15.9956 6.28691 16.1131 6.31782 16.2336 6.35182C19.7326 7.29764 22.5082 9.25418 23.8558 11.4765C23.8867 11.526 23.9146 11.5755 23.9424 11.6249C24.0824 11.5266 24.2366 11.4505 24.3998 11.3993C24.5884 11.3377 24.7856 11.3064 24.984 11.3065C25.0719 11.3065 25.1597 11.3127 25.2467 11.3251C25.3441 11.3376 25.4403 11.3583 25.5342 11.3869C25.9065 10.5915 26.1166 9.72987 26.1524 8.85236C26.1524 8.75036 26.1524 8.64527 26.1524 8.54327C26.1591 7.36263 25.853 6.20126 25.2653 5.17727C25.2408 5.14309 25.2276 5.10206 25.2276 5.05998C25.2276 5.0179 25.2409 4.97689 25.2655 4.94274C25.2901 4.90859 25.3247 4.88303 25.3646 4.86965C25.4045 4.85627 25.4476 4.85576 25.4878 4.86818C27.398 5.304 32.8442 6.80618 33.5458 10.2185C33.5981 10.4665 33.624 10.7193 33.6231 10.9727Z" fill="#D2302F"/>
<path d="M31.7565 30.4331C31.756 30.9202 31.7209 31.4067 31.6514 31.8889C31.444 33.3608 30.9164 34.7692 30.106 36.0153C29.2771 37.2896 28.1801 38.3677 26.8914 39.1742C24.5424 40.6493 21.7086 41.1448 18.9984 40.5542C16.2881 39.9636 13.9174 38.334 12.3951 36.0153C11.6244 34.8308 11.1076 33.4995 10.8774 32.1053C10.9516 32.2289 11.0258 32.3525 11.1062 32.47C12.7275 34.9499 15.2577 36.694 18.1521 37.327C21.0466 37.96 24.0739 37.4313 26.5823 35.8545C26.6534 35.8113 26.7276 35.7649 26.7987 35.7154C27.8773 35.0022 28.8238 34.1069 29.596 33.0696C29.7351 32.8811 29.8711 32.6864 30.0009 32.4854C30.7847 31.2808 31.3225 29.9331 31.5834 28.5198C31.7 29.1509 31.7579 29.7914 31.7565 30.4331Z" fill="#D2302F"/>
<path d="M23.9798 35.5825C21.8816 36.3571 19.5829 36.3976 17.4587 35.6976C15.3346 34.9976 13.5104 33.5984 12.2838 31.7282C11.1075 29.9144 10.5792 27.7563 10.7846 25.6043C10.9899 23.4523 11.917 21.433 13.415 19.8745C13.4892 19.7942 13.5665 19.72 13.6438 19.6427C13.8971 19.395 14.1633 19.1608 14.4412 18.9411C14.3052 19.278 14.1816 19.6211 14.0734 19.9734C13.736 21.0757 13.559 22.2208 13.5479 23.3734C13.5479 23.4198 13.5479 23.4631 13.5479 23.5094C13.5457 25.8448 14.2234 28.1303 15.4983 30.0869C16.4462 31.5477 17.6915 32.7922 19.153 33.7392C20.6144 34.6861 22.2591 35.3142 23.9798 35.5825Z" fill="black"/>
<path d="M34.9699 13.9091C34.8926 13.9091 34.8154 13.9091 34.735 13.9091C34.1492 13.898 33.5748 14.0721 33.0937 14.4067C33.0098 14.4703 32.9313 14.5405 32.8588 14.6169C32.6039 14.3197 32.4688 13.9383 32.4796 13.5469C32.4905 13.1556 32.6466 12.7822 32.9176 12.4996C33.1136 12.2954 33.3598 12.1461 33.6316 12.0669L34.9699 13.9091Z" fill="black"/>
</g>
<defs>
<clipPath id="clip0_3322_10191">
<rect width="122" height="41" fill="white"/>
</clipPath>
</defs>
</svg>
