<svg width="30" height="30" viewBox="0 0 30 30" fill="none" xmlns="http://www.w3.org/2000/svg">
<path fill-rule="evenodd" clip-rule="evenodd" d="M15.0326 0C11.0767 0 7.47283 1.24344 5.34029 2.25936C5.14762 2.35103 4.96779 2.44048 4.80081 2.52771C4.46976 2.69939 4.18776 2.85941 3.96356 3.00025L6.38948 6.39887L7.53151 6.8314C11.9945 8.97408 17.9796 8.97408 22.4435 6.8314L23.7397 6.19135L26.0333 3.00025C25.5577 2.70615 25.0637 2.4398 24.5541 2.20268C22.4321 1.1976 18.9141 0 15.0335 0M9.39167 3.84699C8.53282 3.69318 7.68442 3.49058 6.85102 3.24027C8.84869 2.39603 11.8255 1.50013 15.0335 1.50013C17.2554 1.50013 19.3564 1.93016 21.0939 2.47521C19.0577 2.74773 16.8849 3.21027 14.8145 3.77948C13.1856 4.22785 11.2816 4.17951 9.39167 3.84699ZM23.3692 8.06734L23.1538 8.17068C18.2441 10.5275 11.7318 10.5275 6.82212 8.17068L6.61806 8.07234C-0.75868 15.7738 -6.38998 30 15.0326 30C36.4552 30 30.6873 15.5096 23.3692 8.06734ZM14.1227 15.0012C13.6581 15.0012 13.2126 15.1769 12.8841 15.4894C12.5556 15.802 12.3711 16.226 12.3711 16.6681C12.3711 17.1101 12.5556 17.5341 12.8841 17.8467C13.2126 18.1593 13.6581 18.3349 14.1227 18.3349V15.0012ZM15.8742 13.3344V12.501H14.1227V13.3344C13.1936 13.3344 12.3025 13.6857 11.6456 14.3108C10.9886 14.936 10.6195 15.7839 10.6195 16.6681C10.6195 17.5522 10.9886 18.4001 11.6456 19.0253C12.3025 19.6504 13.1936 20.0017 14.1227 20.0017V23.3353C13.3607 23.3353 12.7118 22.8727 12.4701 22.2244C12.4342 22.1183 12.3763 22.0201 12.2999 21.9357C12.2235 21.8512 12.1301 21.7823 12.0251 21.7328C11.9202 21.6833 11.8059 21.6544 11.689 21.6477C11.5721 21.641 11.455 21.6567 11.3446 21.6938C11.2342 21.7309 11.1327 21.7887 11.0462 21.8638C10.9597 21.9389 10.8899 22.0297 10.8409 22.131C10.7919 22.2322 10.7647 22.3417 10.761 22.4531C10.7573 22.5645 10.7771 22.6754 10.8192 22.7794C11.0607 23.4295 11.508 23.9924 12.0997 24.3904C12.6913 24.7885 13.3981 25.0022 14.1227 25.0021V25.8355H15.8742V25.0021C16.8033 25.0021 17.6944 24.6509 18.3513 24.0257C19.0083 23.4005 19.3774 22.5526 19.3774 21.6685C19.3774 20.7843 19.0083 19.9364 18.3513 19.3113C17.6944 18.6861 16.8033 18.3349 15.8742 18.3349V15.0012C16.6362 15.0012 17.2851 15.4638 17.5268 16.1122C17.5627 16.2183 17.6206 16.3164 17.697 16.4008C17.7734 16.4853 17.8668 16.5543 17.9718 16.6037C18.0767 16.6532 18.191 16.6821 18.3079 16.6888C18.4248 16.6955 18.5419 16.6799 18.6523 16.6427C18.7627 16.6056 18.8642 16.5478 18.9507 16.4727C19.0372 16.3976 19.107 16.3068 19.156 16.2056C19.205 16.1044 19.2322 15.9948 19.2359 15.8834C19.2396 15.7721 19.2198 15.6611 19.1777 15.5571C18.9362 14.907 18.4889 14.3442 17.8972 13.9461C17.3056 13.548 16.5988 13.3343 15.8742 13.3344ZM15.8742 20.0017V23.3353C16.3388 23.3353 16.7843 23.1597 17.1128 22.8471C17.4413 22.5345 17.6258 22.1105 17.6258 21.6685C17.6258 21.2264 17.4413 20.8024 17.1128 20.4899C16.7843 20.1773 16.3388 20.0017 15.8742 20.0017Z" fill="#D32F2F"/>
</svg>
