<svg width="35" height="35" viewBox="0 0 35 35" fill="none" xmlns="http://www.w3.org/2000/svg">
<g filter="url(#filter0_i_3629_443)">
<path d="M15.5556 35V18.7643L0 10.5577V24.7972C0 25.4478 0.170139 26.0393 0.510417 26.5716C0.850694 27.1039 1.3287 27.5327 1.94444 27.858L15.5556 35ZM19.4444 35L33.0556 27.858C33.6713 27.5327 34.1493 27.1039 34.4896 26.5716C34.8299 26.0393 35 25.4478 35 24.7972V10.5577L19.4444 18.7643V35ZM27.1736 10.602L32.9097 7.54119L19.4444 0.487959C18.8287 0.162653 18.1806 0 17.5 0C16.8194 0 16.1713 0.162653 15.5556 0.487959L11.7153 2.48416L27.1736 10.602ZM17.5 15.7034L23.2847 12.6869L7.875 4.52471L2.04167 7.58555L17.5 15.7034Z" fill="#D32F2F"/>
</g>
<defs>
<filter id="filter0_i_3629_443" x="0" y="0" width="35" height="39" filterUnits="userSpaceOnUse" color-interpolation-filters="sRGB">
<feFlood flood-opacity="0" result="BackgroundImageFix"/>
<feBlend mode="normal" in="SourceGraphic" in2="BackgroundImageFix" result="shape"/>
<feColorMatrix in="SourceAlpha" type="matrix" values="0 0 0 0 0 0 0 0 0 0 0 0 0 0 0 0 0 0 127 0" result="hardAlpha"/>
<feOffset dy="4"/>
<feGaussianBlur stdDeviation="2"/>
<feComposite in2="hardAlpha" operator="arithmetic" k2="-1" k3="1"/>
<feColorMatrix type="matrix" values="0 0 0 0 0 0 0 0 0 0 0 0 0 0 0 0 0 0 0.25 0"/>
<feBlend mode="normal" in2="shape" result="effect1_innerShadow_3629_443"/>
</filter>
</defs>
</svg>
