<svg width="51" height="45" viewBox="0 0 51 45" fill="none" xmlns="http://www.w3.org/2000/svg">
<g filter="url(#filter0_i_3629_2715)">
<path d="M45.1067 2.84063C44.54 1.18125 42.9533 0 41.0833 0H9.91667C8.04667 0 6.48833 1.18125 5.89333 2.84063L0 19.6875V42.1875C0 43.7344 1.275 45 2.83333 45H5.66667C7.225 45 8.5 43.7344 8.5 42.1875V39.375H42.5V42.1875C42.5 43.7344 43.775 45 45.3333 45H48.1667C49.725 45 51 43.7344 51 42.1875V19.6875L45.1067 2.84063ZM9.91667 30.9375C7.565 30.9375 5.66667 29.0531 5.66667 26.7188C5.66667 24.3844 7.565 22.5 9.91667 22.5C12.2683 22.5 14.1667 24.3844 14.1667 26.7188C14.1667 29.0531 12.2683 30.9375 9.91667 30.9375ZM41.0833 30.9375C38.7317 30.9375 36.8333 29.0531 36.8333 26.7188C36.8333 24.3844 38.7317 22.5 41.0833 22.5C43.435 22.5 45.3333 24.3844 45.3333 26.7188C45.3333 29.0531 43.435 30.9375 41.0833 30.9375ZM5.66667 16.875L9.91667 4.21875H41.0833L45.3333 16.875H5.66667Z" fill="#D32F2F"/>
</g>
<defs>
<filter id="filter0_i_3629_2715" x="0" y="0" width="51" height="49" filterUnits="userSpaceOnUse" color-interpolation-filters="sRGB">
<feFlood flood-opacity="0" result="BackgroundImageFix"/>
<feBlend mode="normal" in="SourceGraphic" in2="BackgroundImageFix" result="shape"/>
<feColorMatrix in="SourceAlpha" type="matrix" values="0 0 0 0 0 0 0 0 0 0 0 0 0 0 0 0 0 0 127 0" result="hardAlpha"/>
<feOffset dy="4"/>
<feGaussianBlur stdDeviation="2"/>
<feComposite in2="hardAlpha" operator="arithmetic" k2="-1" k3="1"/>
<feColorMatrix type="matrix" values="0 0 0 0 0 0 0 0 0 0 0 0 0 0 0 0 0 0 0.25 0"/>
<feBlend mode="normal" in2="shape" result="effect1_innerShadow_3629_2715"/>
</filter>
</defs>
</svg>
