<svg width="150" height="120" viewBox="0 0 150 120" fill="none" xmlns="http://www.w3.org/2000/svg">
<g clip-path="url(#clip0_3322_10223)">
<path d="M101.783 106.671H96.4336V85.3398H101.783V106.671Z" fill="#D3312F"/>
<path d="M21.4264 93.3426C21.4264 91.2202 20.5795 89.1846 19.072 87.6838C17.5644 86.183 15.5199 85.3398 13.3879 85.3398H5.36345L1.34422 90.6657H13.4579C14.1686 90.6657 14.8504 90.9458 15.3543 91.4448C15.8581 91.9439 16.1431 92.6212 16.1468 93.3287C16.1468 94.0387 15.8635 94.7195 15.3592 95.2215C14.8549 95.7236 14.171 96.0056 13.4579 96.0056H0.0698242V106.671H5.43345V101.29H9.4387L14.8023 106.629H21.4964L15.8947 100.941C17.5017 100.414 18.901 99.3959 19.894 98.0319C20.8869 96.6679 21.4231 95.0272 21.4264 93.3426Z" fill="#D3312F"/>
<path d="M41.5227 90.6657L45.542 85.3398H29.465L25.4458 90.6657H41.5227Z" fill="#D3312F"/>
<path d="M29.4652 101.332V98.6686H40.1365L44.0997 93.3287H24.1016V106.671H41.873L45.5421 101.178L29.4652 101.332Z" fill="#D3312F"/>
<path d="M58.9301 106.671H48.2168V93.3426H53.5664V101.29H58.9161C60.3349 101.29 61.6956 100.729 62.6988 99.7297C63.7021 98.7309 64.2657 97.3762 64.2657 95.9637C64.2657 94.5499 63.7025 93.1938 62.6997 92.1928C61.6968 91.1918 60.3362 90.6276 58.9161 90.6239H49.5472L53.5664 85.2841H58.9301C61.7714 85.2841 64.4964 86.4078 66.5055 88.408C68.5146 90.4082 69.6433 93.1211 69.6433 95.9498C69.6489 97.3546 69.376 98.7467 68.8402 100.046C68.3045 101.346 67.5164 102.528 66.5212 103.524C65.526 104.52 64.3433 105.31 63.0406 105.85C61.738 106.39 60.3412 106.669 58.9301 106.671Z" fill="#D3312F"/>
<path d="M93.7449 101.29C93.7468 101.99 93.6098 102.684 93.3417 103.332C93.0737 103.98 92.68 104.569 92.183 105.065C91.6861 105.561 91.0957 105.954 90.4458 106.223C89.7958 106.491 89.099 106.63 88.3953 106.63H72.2764V93.3427H86.9949C87.3499 93.3435 87.692 93.2101 87.952 92.9694C88.212 92.7287 88.3705 92.3986 88.3953 92.046C88.3953 91.6763 88.2478 91.3216 87.9851 91.0602C87.7225 90.7987 87.3663 90.6518 86.9949 90.6518H73.6768L77.696 85.3259H88.4093C89.8281 85.3259 91.1889 85.887 92.1921 86.8858C93.1954 87.8846 93.759 89.2393 93.759 90.6518C93.7608 91.3524 93.6238 92.0465 93.3558 92.6942C93.0877 93.342 92.694 93.9308 92.1971 94.4268C91.7001 94.9229 91.1097 95.3164 90.4598 95.5849C89.8098 95.8534 89.113 95.9917 88.4093 95.9917C89.8208 95.9953 91.1737 96.5542 92.1732 97.5466C93.1726 98.539 93.7375 99.8844 93.7449 101.29ZM77.682 98.6267V101.29L87.1489 101.164C87.4772 101.157 87.7901 101.024 88.0224 100.793C88.2546 100.562 88.3882 100.25 88.3953 99.9234C88.401 99.7551 88.3725 99.5874 88.3117 99.4303C88.2509 99.2732 88.1589 99.1299 88.0413 99.0089C87.9237 98.8879 87.7829 98.7917 87.6272 98.7261C87.4714 98.6604 87.304 98.6266 87.1349 98.6267H77.682Z" fill="#D3312F"/>
<path d="M125.898 93.3426C125.898 92.2917 125.69 91.251 125.286 90.2801C124.883 89.3092 124.29 88.4269 123.544 87.6838C122.798 86.9407 121.911 86.3512 120.936 85.949C119.961 85.5468 118.916 85.3398 117.86 85.3398H109.821L105.802 90.6657H117.86C118.568 90.6694 119.246 90.9511 119.747 91.4498C120.248 91.9484 120.531 92.6236 120.535 93.3287C120.535 94.0362 120.253 94.715 119.752 95.2166C119.251 95.7182 118.571 96.0019 117.86 96.0056H104.486V106.671H109.849V101.29H113.869L119.218 106.629H125.926L120.325 100.941C121.94 100.421 123.348 99.4061 124.349 98.0415C125.35 96.6769 125.892 95.0324 125.898 93.3426Z" fill="#D3312F"/>
<path d="M139.287 106.671H128.573V93.3426H133.895V101.29H139.245C140.663 101.29 142.024 100.729 143.027 99.7297C144.031 98.7309 144.594 97.3762 144.594 95.9637C144.594 94.5499 144.031 93.1938 143.028 92.1928C142.025 91.1918 140.665 90.6276 139.245 90.6239H129.876L133.895 85.2841H139.258C142.1 85.2841 144.825 86.4078 146.834 88.408C148.843 90.4082 149.972 93.1211 149.972 95.9498C149.977 97.3523 149.705 98.7421 149.171 100.04C148.637 101.338 147.852 102.518 146.86 103.514C145.867 104.509 144.688 105.301 143.388 105.842C142.089 106.384 140.695 106.666 139.287 106.671Z" fill="#D3312F"/>
<path d="M5.29389 116.445C4.83275 116.063 4.27615 115.812 3.68336 115.72L2.52103 115.483C2.16088 115.43 1.82195 115.281 1.54071 115.051C1.44416 114.954 1.36928 114.838 1.32099 114.711C1.27271 114.584 1.25215 114.447 1.26065 114.312C1.25716 114.059 1.33037 113.811 1.4707 113.601C1.62506 113.395 1.83343 113.236 2.07288 113.14C2.36665 113.024 2.68094 112.967 2.99717 112.973C3.32822 112.969 3.65821 113.011 3.97749 113.099C4.28709 113.192 4.58006 113.333 4.84574 113.517C4.94169 113.591 5.06029 113.631 5.18183 113.628C5.27754 113.616 5.36623 113.572 5.4339 113.503C5.49287 113.436 5.53172 113.354 5.54596 113.266C5.57358 113.17 5.57358 113.069 5.54596 112.973C5.51157 112.87 5.4423 112.781 5.34988 112.722C5.04107 112.471 4.68351 112.286 4.29956 112.178C3.885 112.061 3.45625 112 3.02516 111.997C2.63144 111.994 2.23955 112.051 1.86282 112.165C1.53068 112.267 1.22161 112.433 0.952552 112.652C0.707059 112.855 0.506722 113.107 0.364353 113.391C0.222332 113.692 0.150526 114.021 0.154297 114.353C0.13754 114.608 0.17367 114.863 0.260415 115.103C0.34716 115.343 0.482635 115.562 0.658431 115.748C1.08497 116.133 1.61579 116.385 2.18494 116.473L3.36129 116.724C3.74065 116.775 4.10144 116.918 4.41161 117.142C4.51386 117.226 4.59494 117.333 4.64842 117.454C4.70191 117.575 4.72631 117.707 4.71971 117.839C4.72483 118.01 4.68794 118.179 4.61227 118.332C4.5366 118.485 4.42444 118.617 4.28558 118.717C3.86727 118.976 3.376 119.094 2.88515 119.052C2.48858 119.057 2.09301 119.01 1.70875 118.913C1.34277 118.803 0.993952 118.644 0.672449 118.438C0.630114 118.403 0.58109 118.376 0.52821 118.359C0.475329 118.342 0.419637 118.336 0.364353 118.341C0.270175 118.356 0.185162 118.406 0.126304 118.48C0.0572358 118.553 0.013118 118.646 0.000270577 118.745C-0.0339444 118.84 -0.0339444 118.943 0.000270577 119.038C0.0447756 119.151 0.122896 119.249 0.224302 119.317C0.457907 119.48 0.71222 119.611 0.980546 119.707C1.27444 119.822 1.57949 119.906 1.89082 119.958C2.21256 119.979 2.53537 119.979 2.85712 119.958C3.26831 119.962 3.67808 119.91 4.07548 119.805C4.42279 119.733 4.75468 119.601 5.0558 119.414C5.30044 119.22 5.49689 118.972 5.62998 118.689C5.77463 118.399 5.84669 118.079 5.84004 117.755C5.85505 117.51 5.81369 117.264 5.71905 117.037C5.62441 116.81 5.479 116.607 5.29389 116.445Z" fill="black"/>
<path d="M13.0938 112.025C13.0188 112.017 12.9428 112.026 12.8722 112.053C12.8016 112.08 12.7383 112.123 12.6877 112.179C12.6342 112.237 12.5929 112.305 12.5664 112.379C12.54 112.453 12.5288 112.532 12.5337 112.611V115.399H8.23433V112.611C8.24188 112.533 8.23337 112.454 8.20928 112.38C8.1852 112.306 8.14608 112.237 8.09432 112.179C7.97744 112.078 7.82834 112.023 7.67416 112.023C7.51998 112.023 7.37093 112.078 7.25405 112.179C7.20229 112.237 7.16313 112.306 7.13904 112.38C7.11496 112.454 7.10644 112.533 7.114 112.611V119.414C7.10644 119.492 7.11496 119.571 7.13904 119.645C7.16313 119.719 7.20229 119.788 7.25405 119.847C7.30743 119.904 7.37273 119.948 7.44534 119.977C7.51796 120.006 7.59609 120.019 7.67416 120.014C7.75254 120.022 7.83164 120.011 7.90478 119.981C7.97791 119.952 8.04294 119.906 8.09432 119.847C8.14608 119.788 8.1852 119.719 8.20928 119.645C8.23337 119.571 8.24188 119.492 8.23433 119.414V116.459H12.5337V119.414C12.5288 119.493 12.54 119.572 12.5664 119.646C12.5929 119.72 12.6342 119.789 12.6877 119.847C12.7369 119.905 12.7995 119.951 12.8702 119.98C12.9409 120.009 13.0176 120.021 13.0938 120.014C13.1719 120.019 13.25 120.006 13.3226 119.977C13.3953 119.948 13.4606 119.904 13.514 119.847C13.5657 119.788 13.6049 119.719 13.6289 119.645C13.653 119.571 13.6616 119.492 13.654 119.414V112.639C13.6616 112.561 13.653 112.482 13.6289 112.408C13.6049 112.334 13.5657 112.265 13.514 112.206C13.4626 112.146 13.398 112.098 13.3251 112.067C13.2523 112.036 13.1731 112.021 13.0938 112.025Z" fill="black"/>
<path d="M19.2139 112.513C19.1584 112.364 19.0613 112.233 18.9338 112.137C18.8251 112.067 18.6991 112.028 18.5697 112.025C18.4355 112.025 18.3043 112.064 18.1916 112.137C18.0597 112.229 17.9614 112.361 17.9115 112.513L14.9706 119.233C14.9162 119.351 14.8922 119.48 14.9006 119.61C14.9062 119.662 14.9228 119.713 14.9493 119.758C14.9759 119.804 15.0118 119.844 15.0546 119.875C15.1549 119.951 15.2786 119.99 15.4047 119.986C15.5335 119.992 15.6592 119.947 15.7548 119.861C15.8608 119.754 15.942 119.625 15.9929 119.484L16.6091 117.992H20.4603L21.0905 119.484C21.1442 119.627 21.2305 119.756 21.3425 119.861C21.4489 119.947 21.5834 119.992 21.7206 119.986C21.8399 119.987 21.9569 119.953 22.0568 119.889C22.0971 119.856 22.1303 119.816 22.1543 119.771C22.1784 119.725 22.1929 119.675 22.1968 119.624C22.2052 119.49 22.1812 119.356 22.1268 119.233L19.2139 112.513ZM18.5417 113.378L20.0822 117.072H16.9872L18.5417 113.378Z" fill="black"/>
<path d="M28.3306 117.421C28.1957 117.144 27.9994 116.9 27.7564 116.71C27.6607 116.649 27.557 116.602 27.4483 116.57C27.6383 116.52 27.8254 116.46 28.0086 116.389C28.3785 116.223 28.6905 115.951 28.9048 115.608C29.1099 115.237 29.2114 114.819 29.1989 114.395C29.2185 114.08 29.1685 113.764 29.0523 113.471C28.9362 113.177 28.7568 112.912 28.5267 112.694C27.9874 112.268 27.3094 112.055 26.6221 112.095H24.0173C23.9405 112.091 23.8638 112.103 23.7916 112.129C23.7195 112.155 23.6533 112.196 23.5972 112.248C23.5432 112.309 23.5018 112.379 23.4754 112.456C23.4489 112.533 23.438 112.614 23.4431 112.694V119.414C23.4383 119.493 23.4494 119.572 23.4759 119.646C23.5023 119.72 23.5436 119.789 23.5972 119.847C23.7096 119.956 23.8604 120.017 24.0173 120.017C24.1743 120.017 24.325 119.956 24.4374 119.847C24.4892 119.788 24.5284 119.719 24.5524 119.645C24.5765 119.571 24.585 119.492 24.5775 119.414V116.626H25.8099C26.075 116.618 26.3383 116.671 26.5801 116.779C26.8064 116.914 26.9869 117.113 27.0982 117.351L28.2326 119.498C28.2988 119.622 28.3893 119.731 28.4987 119.819C28.615 119.895 28.7517 119.934 28.8908 119.93C29.0173 119.937 29.1418 119.897 29.2409 119.819C29.2807 119.781 29.3124 119.736 29.3341 119.685C29.3558 119.635 29.3669 119.581 29.3669 119.526C29.3727 119.389 29.3387 119.254 29.2689 119.136L28.3306 117.421ZM26.44 115.817H24.5775V113.029H26.44C26.8855 113 27.327 113.128 27.6864 113.391C27.8298 113.521 27.9421 113.681 28.0148 113.86C28.0875 114.038 28.1189 114.231 28.1066 114.423C28.1211 114.62 28.0909 114.817 28.0182 115.001C27.9454 115.184 27.832 115.349 27.6864 115.483C27.3233 115.736 26.8821 115.855 26.44 115.817Z" fill="black"/>
<path d="M35.3747 113.029C35.4386 113.033 35.5027 113.024 35.563 113.003C35.6232 112.981 35.6783 112.947 35.7248 112.903C35.7696 112.858 35.8041 112.803 35.8258 112.743C35.8476 112.683 35.8561 112.619 35.8508 112.555C35.8559 112.493 35.8473 112.431 35.8255 112.374C35.8037 112.316 35.7693 112.263 35.7248 112.22C35.6783 112.176 35.6232 112.143 35.563 112.121C35.5027 112.099 35.4386 112.09 35.3747 112.095H31.4115C31.3291 112.089 31.2464 112.101 31.169 112.13C31.0917 112.159 31.0215 112.204 30.9633 112.262C30.9076 112.324 30.8652 112.397 30.8387 112.476C30.8122 112.555 30.8022 112.639 30.8093 112.722V119.289C30.8006 119.37 30.8099 119.452 30.8365 119.529C30.8632 119.606 30.9064 119.676 30.9633 119.735C31.0215 119.793 31.0917 119.839 31.169 119.867C31.2464 119.896 31.3291 119.908 31.4115 119.902H35.3747C35.5011 119.909 35.6257 119.869 35.7248 119.791C35.7972 119.725 35.8474 119.638 35.8683 119.542C35.8892 119.446 35.8798 119.347 35.8414 119.257C35.803 119.166 35.7376 119.09 35.654 119.039C35.5704 118.987 35.4728 118.962 35.3747 118.968H31.8876V116.403H35.1366C35.1995 116.408 35.2628 116.401 35.3229 116.382C35.383 116.363 35.4387 116.332 35.4867 116.291C35.5687 116.194 35.6137 116.07 35.6137 115.943C35.6137 115.815 35.5687 115.692 35.4867 115.594C35.4407 115.551 35.3852 115.518 35.3246 115.498C35.2639 115.479 35.1996 115.474 35.1366 115.483H31.8876V113.029H35.3747Z" fill="black"/>
<path d="M39.912 112.095H37.8114C37.729 112.089 37.6463 112.101 37.5689 112.13C37.4916 112.159 37.4215 112.204 37.3632 112.262C37.3075 112.324 37.2651 112.397 37.2386 112.476C37.2121 112.555 37.2021 112.639 37.2092 112.722V119.289C37.2005 119.37 37.2099 119.452 37.2365 119.529C37.2631 119.606 37.3064 119.676 37.3632 119.735C37.4215 119.793 37.4916 119.839 37.5689 119.867C37.6463 119.896 37.729 119.908 37.8114 119.902H39.912C40.4836 119.914 41.0526 119.824 41.5925 119.638C42.0564 119.485 42.4783 119.227 42.8249 118.885C43.1712 118.544 43.4346 118.129 43.5951 117.672C43.7763 117.133 43.8662 116.567 43.8612 115.999C43.8966 115.47 43.8229 114.941 43.6446 114.442C43.4664 113.943 43.1874 113.486 42.8249 113.099C42.4309 112.747 41.9703 112.477 41.4701 112.304C40.9699 112.132 40.4402 112.061 39.912 112.095ZM42.5028 117.295C42.3994 117.639 42.2172 117.954 41.9706 118.215C41.7208 118.46 41.4195 118.646 41.0884 118.759C40.6863 118.89 40.2648 118.951 39.842 118.94H38.3295V113.057H39.842C40.2289 113.026 40.6178 113.076 40.9843 113.204C41.3507 113.331 41.6866 113.533 41.9706 113.796C42.4912 114.408 42.748 115.199 42.6849 115.999C42.6943 116.438 42.6329 116.876 42.5028 117.295Z" fill="black"/>
<path d="M53.1742 116.445C52.7131 116.063 52.1565 115.812 51.5637 115.72L50.4014 115.483C50.0453 115.43 49.7109 115.281 49.4351 115.051C49.336 114.955 49.2585 114.84 49.2078 114.713C49.1571 114.585 49.1343 114.449 49.141 114.312C49.1375 114.059 49.2107 113.811 49.3511 113.601C49.5054 113.395 49.7138 113.236 49.9532 113.14C50.2516 113.023 50.5707 112.966 50.8915 112.973C51.2179 112.97 51.5432 113.012 51.8578 113.099C52.1686 113.189 52.462 113.33 52.7261 113.517C52.8244 113.587 52.9415 113.626 53.0622 113.628C53.1579 113.616 53.2466 113.572 53.3143 113.503C53.3726 113.434 53.4155 113.353 53.4403 113.266C53.4611 113.169 53.4611 113.07 53.4403 112.973C53.4059 112.87 53.3367 112.781 53.2443 112.722C52.9354 112.471 52.5779 112.286 52.1939 112.178C51.7796 112.06 51.3507 111.999 50.9195 111.997C50.5258 111.994 50.1339 112.051 49.7572 112.165C49.4251 112.267 49.1159 112.433 48.8469 112.652C48.6014 112.855 48.4011 113.107 48.2587 113.391C48.1167 113.692 48.0449 114.021 48.0487 114.353C48.0319 114.608 48.068 114.863 48.1547 115.103C48.2415 115.343 48.377 115.562 48.5528 115.748C48.9832 116.135 49.5192 116.388 50.0933 116.473L51.2556 116.724C51.635 116.775 51.9958 116.918 52.3059 117.142C52.4082 117.226 52.4893 117.333 52.5428 117.454C52.5962 117.575 52.6206 117.707 52.614 117.839C52.6192 118.01 52.5823 118.179 52.5066 118.332C52.4309 118.485 52.3188 118.617 52.1799 118.717C51.7632 118.98 51.2706 119.098 50.7795 119.052C50.3783 119.058 49.978 119.011 49.5891 118.913C49.2242 118.801 48.8757 118.641 48.5528 118.438C48.5109 118.402 48.4619 118.375 48.4089 118.358C48.356 118.341 48.3 118.335 48.2447 118.341C48.1505 118.356 48.0655 118.406 48.0067 118.48C47.9376 118.553 47.8934 118.646 47.8806 118.745C47.853 118.841 47.853 118.942 47.8806 119.038C47.9251 119.151 48.0032 119.249 48.1047 119.317C48.3383 119.48 48.5926 119.611 48.8609 119.707C49.1554 119.82 49.4603 119.904 49.7712 119.958C50.0976 119.979 50.4251 119.979 50.7515 119.958C51.1581 119.961 51.5632 119.91 51.9558 119.805C52.2899 119.71 52.6034 119.554 52.8801 119.345C53.125 119.147 53.3254 118.9 53.4683 118.62C53.6019 118.326 53.6688 118.008 53.6644 117.686C53.676 117.456 53.6382 117.227 53.5537 117.013C53.4692 116.799 53.3398 116.605 53.1742 116.445Z" fill="black"/>
<path d="M60.9887 112.025C60.9116 112.018 60.8339 112.028 60.7612 112.054C60.6885 112.081 60.6226 112.123 60.5686 112.179C60.515 112.237 60.4737 112.305 60.4473 112.379C60.4208 112.453 60.4097 112.532 60.4145 112.611V115.399H56.1292V112.611C56.1341 112.532 56.1229 112.453 56.0965 112.379C56.07 112.305 56.0287 112.237 55.9751 112.179C55.8583 112.078 55.7092 112.023 55.555 112.023C55.4008 112.023 55.2518 112.078 55.1349 112.179C55.0831 112.237 55.044 112.306 55.0199 112.38C54.9958 112.455 54.9873 112.533 54.9949 112.611V119.414C54.9873 119.492 54.9958 119.571 55.0199 119.645C55.044 119.719 55.0831 119.788 55.1349 119.847C55.1883 119.904 55.2536 119.948 55.3262 119.977C55.3988 120.006 55.4769 120.019 55.555 120.014C55.6353 120.02 55.7158 120.008 55.7909 119.979C55.8659 119.95 55.9336 119.905 55.9892 119.847C56.0872 119.724 56.137 119.571 56.1292 119.414V116.459H60.4145V119.414C60.4097 119.493 60.4208 119.572 60.4473 119.646C60.4737 119.72 60.515 119.789 60.5686 119.847C60.622 119.904 60.6873 119.948 60.7599 119.977C60.8325 120.006 60.9106 120.019 60.9887 120.014C61.0646 120.017 61.1403 120.004 61.2105 119.975C61.2806 119.946 61.3436 119.903 61.3948 119.847C61.4466 119.788 61.4857 119.719 61.5098 119.645C61.5339 119.571 61.5424 119.492 61.5348 119.414V112.639C61.5424 112.561 61.5339 112.482 61.5098 112.408C61.4857 112.334 61.4466 112.265 61.3948 112.206C61.3456 112.147 61.2833 112.1 61.2129 112.069C61.1425 112.037 61.0658 112.022 60.9887 112.025Z" fill="black"/>
<path d="M68.9994 112.025C68.9257 112.02 68.8518 112.029 68.782 112.053C68.7122 112.077 68.6479 112.115 68.5932 112.164C68.5415 112.223 68.5024 112.292 68.4783 112.366C68.4542 112.44 68.4456 112.519 68.4532 112.597V116.779C68.5014 117.391 68.3164 117.998 67.935 118.48C67.5214 118.85 66.9853 119.054 66.4296 119.054C65.8739 119.054 65.3378 118.85 64.9241 118.48C64.5427 117.998 64.3577 117.391 64.406 116.779V112.597C64.4135 112.519 64.405 112.44 64.3809 112.366C64.3568 112.292 64.3177 112.223 64.2659 112.164C64.1447 112.074 63.9973 112.025 63.8458 112.025C63.6943 112.025 63.5468 112.074 63.4256 112.164C63.3721 112.222 63.3308 112.291 63.3044 112.365C63.2779 112.439 63.2668 112.518 63.2716 112.597V116.779C63.2619 117.253 63.3329 117.724 63.4817 118.174C63.6025 118.554 63.8083 118.902 64.0838 119.191C64.3526 119.476 64.6901 119.687 65.0642 119.805C65.5151 119.955 65.9891 120.026 66.4646 120.014C67.0641 120.031 67.6592 119.907 68.2011 119.651C68.6567 119.407 69.0239 119.027 69.2514 118.564C69.4952 118.001 69.6146 117.392 69.6015 116.779V112.597C69.6094 112.44 69.5596 112.287 69.4615 112.164C69.3998 112.108 69.3263 112.067 69.2463 112.043C69.1663 112.019 69.082 112.013 68.9994 112.025Z" fill="black"/>
<path d="M76.6876 112.095H70.9598C70.8944 112.091 70.8288 112.101 70.7675 112.124C70.7062 112.147 70.6505 112.182 70.6041 112.229C70.5577 112.275 70.5218 112.33 70.4986 112.391C70.4754 112.452 70.4656 112.518 70.4697 112.583C70.4679 112.647 70.4795 112.711 70.5035 112.771C70.5276 112.831 70.5638 112.886 70.6097 112.931C70.7053 113.017 70.8311 113.062 70.9598 113.057H73.2705V119.414C73.263 119.492 73.2715 119.571 73.2956 119.645C73.3197 119.719 73.3588 119.788 73.4106 119.847C73.4639 119.904 73.5293 119.948 73.6019 119.977C73.6745 120.006 73.7526 120.018 73.8307 120.014C73.9091 120.022 73.9882 120.011 74.0613 119.981C74.1345 119.952 74.1995 119.906 74.2508 119.847C74.3026 119.788 74.3417 119.719 74.3658 119.645C74.3899 119.571 74.3984 119.492 74.3909 119.414V113.085H76.6876C76.7558 113.09 76.8243 113.081 76.8892 113.06C76.9541 113.038 77.0141 113.004 77.0657 112.959C77.1098 112.913 77.1438 112.858 77.1655 112.798C77.1872 112.738 77.1961 112.674 77.1917 112.611C77.1973 112.545 77.1889 112.479 77.1672 112.416C77.1455 112.354 77.1109 112.296 77.0657 112.248C77.0164 112.198 76.9574 112.159 76.8924 112.133C76.8275 112.106 76.7577 112.094 76.6876 112.095Z" fill="black"/>
<path d="M84.0116 112.095H78.2838C78.1505 112.087 78.0196 112.132 77.9197 112.22C77.8745 112.269 77.8399 112.326 77.8182 112.388C77.7965 112.451 77.7881 112.517 77.7936 112.583C77.7892 112.646 77.7982 112.71 77.8199 112.77C77.8416 112.83 77.8756 112.885 77.9197 112.931C78.0196 113.02 78.1505 113.065 78.2838 113.057H80.5805V119.414C80.5756 119.493 80.5868 119.572 80.6133 119.646C80.6397 119.72 80.681 119.789 80.7346 119.847C80.8486 119.953 80.9987 120.011 81.1547 120.011C81.3106 120.011 81.4608 119.953 81.5748 119.847C81.6679 119.723 81.7127 119.569 81.7009 119.414V113.085H84.0116C84.1448 113.093 84.2758 113.047 84.3757 112.959C84.4198 112.913 84.4538 112.858 84.4755 112.798C84.4972 112.738 84.5061 112.674 84.5017 112.611C84.5072 112.545 84.4988 112.479 84.4771 112.416C84.4554 112.354 84.4209 112.297 84.3757 112.248C84.3285 112.2 84.2719 112.161 84.2093 112.135C84.1468 112.108 84.0795 112.095 84.0116 112.095Z" fill="black"/>
<path d="M89.9355 118.912H86.5605V112.639C86.5726 112.482 86.5223 112.327 86.4205 112.206C86.3036 112.106 86.1545 112.051 86.0003 112.051C85.8461 112.051 85.6971 112.106 85.5802 112.206C85.4733 112.324 85.418 112.48 85.4262 112.639V119.317C85.4173 119.396 85.4263 119.476 85.4528 119.551C85.4792 119.626 85.5222 119.694 85.5787 119.75C85.6352 119.807 85.7037 119.85 85.7791 119.876C85.8545 119.902 85.9349 119.911 86.0143 119.902H89.9355C90.0027 119.907 90.0702 119.897 90.1331 119.873C90.196 119.849 90.2528 119.811 90.2996 119.763C90.352 119.72 90.3951 119.667 90.4264 119.607C90.4576 119.547 90.4765 119.482 90.4817 119.414C90.4881 119.282 90.4429 119.152 90.3557 119.052C90.3009 118.998 90.2346 118.958 90.1618 118.934C90.089 118.91 90.0116 118.902 89.9355 118.912Z" fill="black"/>
<path d="M95.9014 113.029C95.9653 113.033 96.0294 113.024 96.0897 113.003C96.15 112.981 96.205 112.947 96.2515 112.903C96.2963 112.858 96.3308 112.803 96.3526 112.743C96.3743 112.683 96.3828 112.619 96.3775 112.555C96.3826 112.493 96.374 112.431 96.3522 112.374C96.3304 112.316 96.296 112.263 96.2515 112.22C96.205 112.176 96.15 112.143 96.0897 112.121C96.0294 112.099 95.9653 112.09 95.9014 112.095H91.8822C91.7998 112.089 91.7171 112.101 91.6397 112.13C91.5624 112.159 91.4922 112.204 91.434 112.262C91.3783 112.324 91.3359 112.397 91.3094 112.476C91.2829 112.555 91.2729 112.639 91.28 112.722V119.289C91.2713 119.37 91.2807 119.452 91.3073 119.529C91.3339 119.606 91.3771 119.676 91.434 119.735C91.4922 119.793 91.5624 119.839 91.6397 119.867C91.7171 119.896 91.7998 119.908 91.8822 119.902H95.8453C95.9718 119.909 96.0964 119.869 96.1955 119.791C96.2679 119.725 96.3181 119.638 96.339 119.542C96.3599 119.446 96.3505 119.347 96.3121 119.257C96.2737 119.166 96.2083 119.09 96.1247 119.039C96.0411 118.987 95.9435 118.962 95.8453 118.968H92.3583V116.403H95.6073C95.6702 116.408 95.7335 116.401 95.7936 116.382C95.8537 116.363 95.9094 116.332 95.9574 116.291C96.0394 116.194 96.0844 116.07 96.0844 115.943C96.0844 115.815 96.0394 115.692 95.9574 115.594C95.9114 115.551 95.8559 115.518 95.7953 115.498C95.7346 115.479 95.6703 115.474 95.6073 115.483H92.3583V113.029H95.9014Z" fill="black"/>
<path d="M104.92 116.445C104.455 116.06 103.893 115.81 103.296 115.72L102.147 115.483C101.787 115.43 101.448 115.281 101.167 115.05C101.068 114.955 100.99 114.84 100.94 114.713C100.889 114.585 100.866 114.448 100.873 114.312C100.869 114.059 100.943 113.811 101.083 113.601C101.245 113.396 101.457 113.238 101.699 113.14C101.993 113.024 102.307 112.967 102.623 112.973C102.954 112.969 103.284 113.011 103.604 113.099C103.91 113.188 104.199 113.33 104.458 113.517C104.556 113.587 104.673 113.626 104.794 113.628C104.842 113.625 104.89 113.612 104.933 113.591C104.976 113.569 105.015 113.539 105.046 113.503C105.115 113.441 105.16 113.357 105.172 113.266C105.2 113.17 105.2 113.069 105.172 112.973C105.133 112.872 105.065 112.785 104.976 112.722C104.665 112.467 104.302 112.281 103.912 112.178C103.502 112.06 103.078 111.999 102.651 111.997C102.258 111.993 101.866 112.049 101.489 112.164C101.157 112.267 100.848 112.433 100.579 112.652C100.333 112.859 100.129 113.109 99.9766 113.391C99.8346 113.692 99.7628 114.021 99.7665 114.353C99.7498 114.608 99.7859 114.863 99.8726 115.103C99.9594 115.343 100.095 115.562 100.271 115.748C100.705 116.13 101.239 116.381 101.811 116.473L102.974 116.724C103.357 116.775 103.722 116.919 104.038 117.142C104.14 117.226 104.221 117.333 104.275 117.454C104.328 117.575 104.353 117.707 104.346 117.839C104.351 118.009 104.314 118.179 104.238 118.332C104.163 118.485 104.051 118.617 103.912 118.717C103.493 118.976 103.002 119.094 102.511 119.052C102.115 119.057 101.719 119.01 101.335 118.912C100.969 118.803 100.62 118.644 100.299 118.438C100.254 118.402 100.203 118.374 100.148 118.357C100.092 118.341 100.034 118.335 99.9766 118.341C99.8848 118.362 99.8017 118.411 99.7385 118.48C99.6801 118.56 99.6373 118.65 99.6125 118.745C99.5856 118.841 99.5856 118.942 99.6125 119.038C99.657 119.151 99.7351 119.249 99.8365 119.317C100.07 119.48 100.324 119.611 100.593 119.707C100.882 119.82 101.183 119.904 101.489 119.958C101.815 119.979 102.143 119.979 102.469 119.958C102.88 119.961 103.29 119.909 103.688 119.805C104.016 119.706 104.324 119.55 104.598 119.345C104.843 119.147 105.043 118.9 105.186 118.62C105.331 118.33 105.403 118.009 105.396 117.686C105.406 117.457 105.369 117.229 105.287 117.016C105.205 116.803 105.08 116.608 104.92 116.445Z" fill="black"/>
<path d="M111.306 113.029C111.37 113.033 111.434 113.024 111.494 113.003C111.555 112.981 111.61 112.947 111.656 112.903C111.701 112.858 111.736 112.803 111.757 112.743C111.779 112.683 111.788 112.619 111.782 112.555C111.787 112.493 111.779 112.431 111.757 112.374C111.735 112.316 111.701 112.263 111.656 112.22C111.61 112.176 111.555 112.143 111.494 112.121C111.434 112.099 111.37 112.09 111.306 112.095H107.287C107.205 112.089 107.122 112.101 107.045 112.13C106.967 112.159 106.897 112.204 106.839 112.262C106.783 112.324 106.741 112.397 106.714 112.476C106.688 112.555 106.678 112.639 106.685 112.722V119.289C106.676 119.37 106.685 119.452 106.712 119.529C106.739 119.606 106.782 119.676 106.839 119.735C106.897 119.793 106.967 119.839 107.045 119.867C107.122 119.896 107.205 119.908 107.287 119.902H111.25C111.377 119.909 111.501 119.869 111.6 119.791C111.673 119.725 111.723 119.638 111.744 119.542C111.765 119.446 111.755 119.347 111.717 119.257C111.679 119.166 111.613 119.09 111.529 119.039C111.446 118.987 111.348 118.962 111.25 118.968H107.763V116.403H111.012C111.075 116.408 111.138 116.401 111.198 116.382C111.258 116.363 111.314 116.332 111.362 116.291C111.444 116.194 111.489 116.07 111.489 115.943C111.489 115.815 111.444 115.692 111.362 115.594C111.316 115.551 111.261 115.518 111.2 115.498C111.139 115.479 111.075 115.474 111.012 115.483H107.763V113.029H111.306Z" fill="black"/>
<path d="M118.028 117.421C117.889 117.142 117.688 116.899 117.44 116.71C117.346 116.647 117.242 116.6 117.132 116.57C117.327 116.522 117.519 116.462 117.706 116.389C118.075 116.227 118.383 115.954 118.589 115.608C118.805 115.241 118.911 114.82 118.897 114.395C118.916 114.08 118.866 113.764 118.75 113.471C118.634 113.177 118.454 112.912 118.224 112.694C117.681 112.265 116.998 112.051 116.306 112.095H113.715C113.638 112.091 113.561 112.103 113.489 112.129C113.417 112.155 113.351 112.196 113.295 112.248C113.238 112.307 113.195 112.377 113.168 112.454C113.142 112.531 113.132 112.613 113.141 112.694V119.414C113.133 119.492 113.142 119.571 113.166 119.645C113.19 119.719 113.229 119.788 113.281 119.847C113.334 119.904 113.4 119.948 113.472 119.977C113.545 120.006 113.623 120.018 113.701 120.014C113.779 120.021 113.858 120.009 113.931 119.98C114.004 119.951 114.069 119.905 114.121 119.847C114.173 119.788 114.212 119.719 114.236 119.645C114.26 119.571 114.269 119.492 114.261 119.414V116.626H115.494C115.759 116.617 116.022 116.669 116.264 116.779C116.494 116.91 116.675 117.11 116.782 117.351L117.93 119.498C117.997 119.622 118.087 119.731 118.196 119.819C118.308 119.894 118.44 119.933 118.574 119.93C118.705 119.937 118.834 119.897 118.939 119.819C118.978 119.781 119.01 119.736 119.032 119.685C119.053 119.635 119.065 119.581 119.065 119.526C119.064 119.39 119.03 119.256 118.967 119.136L118.028 117.421ZM116.124 115.817H114.289V113.029H116.152C116.597 112.999 117.039 113.128 117.398 113.391C117.543 113.52 117.658 113.68 117.733 113.858C117.808 114.037 117.842 114.23 117.832 114.423C117.845 114.621 117.813 114.819 117.738 115.003C117.662 115.186 117.546 115.35 117.398 115.483C117.027 115.743 116.575 115.862 116.124 115.817Z" fill="black"/>
<path d="M126.753 112.123C126.66 112.053 126.546 112.019 126.431 112.025C126.295 112.017 126.161 112.056 126.052 112.137C125.948 112.223 125.867 112.333 125.814 112.457L123.308 118.452L120.759 112.443C120.719 112.315 120.647 112.2 120.549 112.109C120.44 112.028 120.306 111.989 120.171 111.997C120.051 111.991 119.932 112.025 119.835 112.095C119.744 112.152 119.679 112.242 119.653 112.346C119.613 112.478 119.613 112.618 119.653 112.75L122.579 119.484C122.633 119.62 122.719 119.739 122.832 119.833C122.949 119.919 123.092 119.963 123.238 119.958C123.379 119.966 123.519 119.921 123.63 119.833C123.75 119.747 123.839 119.625 123.882 119.484L126.795 112.75C126.849 112.656 126.883 112.551 126.893 112.443C126.896 112.383 126.885 112.322 126.861 112.267C126.837 112.211 126.799 112.162 126.753 112.123Z" fill="black"/>
<path d="M128.532 112.025C128.455 112.018 128.377 112.028 128.304 112.054C128.231 112.081 128.166 112.123 128.112 112.179C128.06 112.237 128.021 112.306 127.997 112.38C127.972 112.455 127.964 112.533 127.971 112.611V119.414C127.964 119.492 127.972 119.571 127.997 119.645C128.021 119.719 128.06 119.788 128.112 119.847C128.165 119.904 128.23 119.948 128.303 119.977C128.376 120.006 128.454 120.019 128.532 120.014C128.612 120.02 128.693 120.008 128.768 119.979C128.843 119.95 128.911 119.905 128.966 119.847C129.064 119.724 129.114 119.571 129.106 119.414V112.639C129.111 112.56 129.1 112.481 129.074 112.407C129.047 112.333 129.006 112.264 128.952 112.206C128.901 112.146 128.836 112.099 128.763 112.067C128.69 112.036 128.611 112.021 128.532 112.025Z" fill="black"/>
<path d="M136.696 118.425C136.617 118.368 136.526 118.33 136.43 118.313C136.302 118.321 136.177 118.36 136.066 118.425C135.82 118.615 135.539 118.757 135.24 118.843C134.941 118.939 134.629 118.986 134.315 118.982C133.825 119.003 133.338 118.882 132.915 118.634C132.532 118.39 132.234 118.034 132.061 117.616C131.852 117.103 131.752 116.552 131.767 115.999C131.751 115.445 131.851 114.894 132.061 114.381C132.234 113.963 132.532 113.607 132.915 113.364C133.341 113.122 133.825 113.001 134.315 113.015C134.629 113.011 134.941 113.058 135.24 113.154C135.523 113.241 135.789 113.378 136.024 113.559C136.128 113.639 136.256 113.683 136.388 113.684C136.491 113.679 136.59 113.64 136.668 113.573C136.741 113.498 136.793 113.407 136.822 113.308C136.849 113.203 136.849 113.092 136.822 112.987C136.78 112.864 136.696 112.761 136.584 112.694C136.274 112.46 135.922 112.285 135.548 112.178C135.147 112.061 134.733 112 134.315 111.997C133.784 111.991 133.257 112.086 132.761 112.276C132.314 112.45 131.916 112.727 131.598 113.085C131.27 113.448 131.022 113.875 130.87 114.339C130.695 114.875 130.61 115.436 130.618 115.999C130.603 116.734 130.756 117.464 131.066 118.132C131.336 118.712 131.775 119.198 132.327 119.526C132.934 119.863 133.62 120.032 134.315 120.014C134.747 120.019 135.177 119.958 135.59 119.833C135.972 119.715 136.329 119.526 136.64 119.275C136.744 119.213 136.82 119.113 136.85 118.996C136.885 118.897 136.885 118.789 136.85 118.689C136.825 118.589 136.771 118.497 136.696 118.425Z" fill="black"/>
<path d="M142.802 113.029C142.866 113.033 142.93 113.024 142.99 113.003C143.05 112.981 143.105 112.947 143.152 112.903C143.197 112.858 143.231 112.803 143.253 112.743C143.275 112.683 143.283 112.619 143.278 112.555C143.283 112.493 143.274 112.431 143.253 112.374C143.231 112.316 143.196 112.263 143.152 112.22C143.105 112.176 143.05 112.143 142.99 112.121C142.93 112.099 142.866 112.09 142.802 112.095H138.839C138.756 112.089 138.673 112.101 138.596 112.13C138.519 112.159 138.449 112.204 138.39 112.262C138.333 112.324 138.288 112.396 138.259 112.475C138.231 112.554 138.218 112.638 138.222 112.722V119.289C138.216 119.371 138.228 119.454 138.256 119.531C138.285 119.608 138.33 119.678 138.389 119.737C138.447 119.795 138.518 119.84 138.596 119.869C138.673 119.897 138.756 119.909 138.839 119.902H142.802C142.928 119.909 143.053 119.869 143.152 119.791C143.224 119.725 143.274 119.638 143.295 119.542C143.316 119.446 143.307 119.347 143.268 119.257C143.23 119.166 143.165 119.09 143.081 119.039C142.998 118.987 142.9 118.962 142.802 118.968H139.315V116.403H142.564C142.627 116.408 142.69 116.401 142.75 116.382C142.81 116.363 142.866 116.332 142.914 116.291C142.996 116.194 143.041 116.07 143.041 115.943C143.041 115.815 142.996 115.692 142.914 115.594C142.868 115.551 142.812 115.518 142.752 115.498C142.691 115.479 142.627 115.474 142.564 115.483H139.315V113.029H142.802Z" fill="black"/>
<path d="M149.468 116.445C149.003 116.06 148.441 115.81 147.843 115.72L146.695 115.483C146.334 115.433 145.994 115.283 145.715 115.05C145.616 114.955 145.538 114.84 145.488 114.713C145.437 114.585 145.414 114.448 145.421 114.312C145.417 114.059 145.49 113.811 145.631 113.601C145.789 113.393 146.002 113.233 146.247 113.14C146.541 113.024 146.855 112.967 147.171 112.973C147.502 112.969 147.832 113.011 148.152 113.099C148.458 113.188 148.747 113.33 149.006 113.517C149.104 113.587 149.221 113.626 149.342 113.628C149.39 113.625 149.437 113.612 149.481 113.591C149.524 113.569 149.562 113.539 149.594 113.503C149.663 113.441 149.707 113.357 149.72 113.266C149.741 113.169 149.741 113.07 149.72 112.973C149.68 112.872 149.612 112.785 149.524 112.722C149.213 112.467 148.85 112.281 148.46 112.178C148.05 112.06 147.626 111.999 147.199 111.997C146.805 111.993 146.413 112.049 146.037 112.164C145.705 112.267 145.396 112.433 145.127 112.652C144.881 112.859 144.677 113.109 144.524 113.391C144.382 113.692 144.311 114.021 144.314 114.353C144.298 114.608 144.334 114.863 144.42 115.103C144.507 115.343 144.643 115.562 144.819 115.748C145.251 116.133 145.786 116.384 146.359 116.473L147.521 116.724C147.904 116.778 148.269 116.921 148.586 117.142C148.686 117.228 148.765 117.335 148.818 117.456C148.871 117.577 148.897 117.707 148.894 117.839C148.899 118.009 148.862 118.179 148.786 118.332C148.711 118.485 148.598 118.617 148.46 118.717C148.041 118.976 147.55 119.094 147.059 119.052C146.663 119.058 146.267 119.011 145.883 118.912C145.517 118.803 145.168 118.644 144.847 118.438C144.802 118.402 144.751 118.374 144.695 118.357C144.64 118.341 144.582 118.335 144.524 118.341C144.433 118.362 144.35 118.411 144.286 118.48C144.228 118.56 144.185 118.65 144.16 118.745C144.133 118.841 144.133 118.942 144.16 119.038C144.205 119.151 144.283 119.249 144.384 119.317C144.618 119.48 144.872 119.611 145.141 119.707C145.43 119.82 145.731 119.904 146.037 119.958C146.363 119.979 146.691 119.979 147.017 119.958C147.428 119.961 147.838 119.909 148.236 119.805C148.564 119.706 148.872 119.55 149.146 119.345C149.391 119.147 149.591 118.9 149.734 118.62C149.879 118.33 149.951 118.009 149.944 117.686C149.954 117.457 149.917 117.229 149.835 117.016C149.753 116.803 149.628 116.608 149.468 116.445Z" fill="black"/>
<path d="M104.668 20.0906C104.668 20.5786 104.668 21.0526 104.598 21.4848C103.616 21.4949 102.667 21.8393 101.909 22.4608C101.631 22.6897 101.381 22.9519 101.167 23.2415C100.648 23.9553 100.369 24.8141 100.369 25.6954C100.365 26.3133 100.504 26.9238 100.775 27.48C101.113 28.194 101.647 28.7981 102.315 29.2227C101.961 29.8834 101.573 30.5255 101.153 31.1467C99.4683 33.6717 97.2628 35.8105 94.6831 37.4207L94.361 37.6298C90.9699 39.6609 87.1129 40.7936 83.1575 40.9202H82.0792C79.6145 41.0923 77.3059 42.1847 75.6155 43.9788C73.9251 45.7729 72.9775 48.1362 72.9624 50.596C72.9602 51.3998 73.059 52.2008 73.2565 52.9801C71.8587 50.776 70.9419 48.304 70.5656 45.7244C70.1892 43.1448 70.3617 40.5152 71.0719 38.0063C71.1839 37.602 71.3099 37.2116 71.436 36.8212C71.7943 35.8203 72.2346 34.8504 72.7524 33.9212C73.105 33.2912 73.4931 32.6814 73.9147 32.0948C74.8546 30.7828 75.9607 29.5972 77.2057 28.5674C73.0977 29.2487 69.2939 31.1544 66.2964 34.0328H65.8483C61.0266 33.4435 56.4642 31.532 52.6702 28.5117C48.4508 25.2308 45.3709 20.7155 43.8636 15.601C42.3563 10.4866 42.4976 5.03034 44.2676 0C46.7604 4.32206 52.2081 8.12827 59.0982 9.7595C60.1644 10.0263 61.2443 10.2358 62.3332 10.3869L63.8736 10.6657C64.4898 10.6657 65.092 10.7494 65.6942 10.7633C67.8254 10.7834 69.9481 11.0359 72.0242 11.5162L72.6824 11.6835C79.1103 13.4123 84.2219 16.9955 86.6866 21.0666L86.8407 21.3315C87.0966 21.1483 87.3802 21.0071 87.6809 20.9132C88.0306 20.8069 88.3937 20.7506 88.7593 20.7459C88.9177 20.7325 89.077 20.7325 89.2354 20.7459C89.4167 20.7616 89.5953 20.799 89.7676 20.8574L89.8376 20.718C90.4667 19.2953 90.823 17.7679 90.8879 16.2147C90.8879 16.0335 90.8879 15.8383 90.8879 15.6431C90.9 13.4807 90.3345 11.3539 89.2494 9.48066C89.2144 9.41888 89.1983 9.34821 89.2032 9.27742C89.2081 9.20662 89.2337 9.13882 89.277 9.08241C89.3202 9.026 89.3791 8.98347 89.4464 8.96008C89.5137 8.9367 89.5864 8.93348 89.6556 8.95085C93.1566 9.74555 103.184 12.4922 104.486 18.7104C104.585 19.1646 104.646 19.6263 104.668 20.0906Z" fill="#D3312F"/>
<path d="M101.223 55.6989C101.236 58.4201 100.642 61.1102 99.4866 63.5762C98.0124 66.6894 95.7309 69.3548 92.8773 71.2977C90.0236 73.2406 86.7012 74.3906 83.2524 74.6293C79.8035 74.8679 76.3532 74.1865 73.257 72.6554C70.1609 71.1242 67.5309 68.7987 65.6383 65.9185C64.22 63.7467 63.2665 61.3072 62.8374 58.7522L63.2575 59.4214C66.2411 63.9506 70.8896 67.1344 76.205 68.2892C81.5203 69.444 87.0786 68.4777 91.6862 65.5978L92.0784 65.3329C94.0652 64.0301 95.809 62.3931 97.2319 60.495C97.484 60.1464 97.7361 59.7839 97.9742 59.4214C99.4163 57.2199 100.406 54.7559 100.887 52.1715C101.106 53.3347 101.219 54.5154 101.223 55.6989Z" fill="#D3312F"/>
<path d="M86.9386 65.1237C84.915 65.8602 82.7773 66.2377 80.6226 66.2391C77.6085 66.2462 74.6406 65.5023 71.9891 64.0753C69.3376 62.6483 67.0869 60.5835 65.442 58.069C64.2473 56.232 63.4067 54.1895 62.9633 52.046C62.7201 50.8859 62.598 49.7038 62.5991 48.5186C62.6018 43.9909 64.3631 39.6395 67.5146 36.375C67.6547 36.2263 67.7947 36.0869 67.9348 35.9568C68.3982 35.4955 68.8893 35.0625 69.4052 34.6602C69.1532 35.2876 68.9291 35.9149 68.733 36.5563C68.1174 38.5732 67.7921 40.6667 67.7667 42.7745V43.0254C67.7619 47.3021 69.0076 51.4877 71.3518 55.0714C73.0966 57.7415 75.3859 60.0163 78.0712 61.7481C80.7566 63.4799 83.7777 64.63 86.9386 65.1237Z" fill="black"/>
<path d="M107.147 25.4723H106.713C105.634 25.4507 104.576 25.7678 103.688 26.3785C103.538 26.4977 103.398 26.6283 103.268 26.7689C102.808 26.2498 102.558 25.5789 102.568 24.8867C102.566 24.1447 102.852 23.4307 103.366 22.893C103.729 22.52 104.182 22.2463 104.682 22.0983L107.147 25.4723Z" fill="black"/>
</g>
<defs>
<clipPath id="clip0_3322_10223">
<rect width="150" height="120" fill="white"/>
</clipPath>
</defs>
</svg>
