<svg width="117" height="20" viewBox="0 0 117 20" fill="none" xmlns="http://www.w3.org/2000/svg">
<g clip-path="url(#clip0_3839_2514)">
<path d="M53.1245 5.68994H48.2202V7.57864L53.1245 7.58754V5.68994Z" fill="black"/>
<path d="M45.7286 5.68994H43.4877V10.9603H43.4649L39.3601 5.68994H37.1191V14.3103H39.3601V9.02806H39.3828L43.4877 14.3103H45.7286V5.68994Z" fill="black"/>
<path d="M67.8254 5.68994H65.5845V14.3103H67.8254V5.68994Z" fill="black"/>
<path d="M74.1701 9.05183L73.5982 8.88067C73.2094 8.75502 72.6088 8.56012 72.6088 8.05752C72.6088 7.57669 73.1579 7.33726 73.5695 7.33726C74.1153 7.35029 74.6397 7.55202 75.0536 7.90812L75.944 6.1708C75.1143 5.72198 74.1891 5.47872 73.246 5.46143C71.5196 5.46143 70.2779 6.60513 70.2779 8.35433C70.2779 10.0234 71.2039 10.3895 72.6098 10.7892C73.0897 10.9267 73.9702 11.1443 73.9702 11.7726C73.9702 12.3791 73.4102 12.6412 72.8819 12.6412C72.1161 12.6412 71.4533 12.2455 70.8933 11.7508L69.9326 13.5574C70.8183 14.187 71.8755 14.5302 72.9621 14.5408C73.8317 14.5408 74.734 14.3004 75.4087 13.7286C76.0835 13.1567 76.2992 12.2653 76.2992 11.4075C76.2962 10.0125 75.3711 9.40602 74.1701 9.05183Z" fill="black"/>
<path d="M93.5466 13.5791C94.4044 12.7451 94.4499 11.6469 94.4499 10.5378V5.68994H92.2089V10.2282C92.2089 11.3491 92.1298 12.572 90.6893 12.572C89.2488 12.572 89.1686 11.3491 89.1686 10.2282V5.69093H86.9277V10.5388C86.9277 11.6479 86.9732 12.7461 87.831 13.5801C88.5513 14.2895 89.6831 14.5408 90.6893 14.5408C91.6955 14.5408 92.8273 14.2885 93.5466 13.5791Z" fill="black"/>
<path d="M101.824 12.4127H99.1364V5.68994H96.8955V14.3103H101.824V12.4127Z" fill="black"/>
<path d="M107.436 9.05183L106.865 8.88067C106.477 8.75502 105.87 8.56012 105.87 8.05752C105.87 7.57669 106.419 7.33726 106.831 7.33726C107.377 7.35029 107.901 7.55202 108.315 7.90812L109.205 6.1708C108.375 5.72208 107.45 5.47883 106.506 5.46143C104.78 5.46143 103.538 6.60513 103.538 8.35433C103.538 10.0234 104.464 10.3895 105.87 10.7892C106.351 10.9267 107.23 11.1443 107.23 11.7726C107.23 12.3791 106.67 12.6412 106.142 12.6412C105.375 12.6412 104.712 12.2455 104.153 11.7508L103.197 13.5564C104.082 14.1859 105.14 14.529 106.226 14.5398C107.096 14.5398 107.999 14.2994 108.673 13.7276C109.347 13.1557 109.563 12.2643 109.563 11.4065C109.563 10.0125 108.638 9.40602 107.436 9.05183Z" fill="black"/>
<path d="M58.7351 12.4443L57.4302 10.5991L54.7134 14.3102H57.4223L58.7351 12.4443Z" fill="black"/>
<path d="M63.9054 14.3103L60.7147 9.7028L63.4701 5.68994H60.7147L59.4008 7.91997L58.0859 5.68994H55.3306L61.2064 14.3103H63.9054Z" fill="black"/>
<path d="M53.1245 12.4125H50.4611V10.9264H52.988V9.02785L48.2202 9.02686V14.3101H53.1245V12.4125Z" fill="black"/>
<path d="M81.8178 5.69092H78.3877V7.4965H81.2766C82.0236 7.50937 82.6182 7.62117 82.6182 8.59272C82.6182 9.52668 81.987 9.63056 81.2766 9.64244H78.3877V14.3063H80.6286V11.453H81.898C83.8529 11.453 84.9501 10.5625 84.9501 8.52545C84.9501 6.54771 83.6699 5.69092 81.8178 5.69092Z" fill="black"/>
<path d="M113.895 10.9264H116.422V9.02785L111.654 9.02686V14.3101H116.56V12.4125H113.895V10.9264Z" fill="black"/>
<path d="M111.654 5.68994V7.57864L116.56 7.58754V5.68994H111.654Z" fill="black"/>
<path d="M31.1371 5.61169C30.1715 3.22633 27.6091 2.42 25.1267 2.20927C25.3162 2.52277 25.4815 2.8502 25.6214 3.18874C27.4903 3.57953 29.3157 4.38686 29.8846 6.03514C30.5316 8.63222 27.6437 11.1056 25.7085 12.4799C22.9591 14.3177 19.9441 15.7227 16.7686 16.6461V10.8444C16.7685 9.49644 16.33 8.18504 15.5192 7.10814C14.7084 6.03125 13.5694 5.2473 12.2739 4.87461C12.1196 4.83009 11.9633 4.7925 11.8059 4.75985C11.7347 4.74402 11.6645 4.73214 11.5932 4.72027C11.2498 4.66137 10.9019 4.63191 10.5534 4.63222H7.48638V7.67847H10.5603C11.4 7.67847 12.2053 8.01202 12.799 8.60576C13.3927 9.19949 13.7263 10.0048 13.7263 10.8444V17.3742C12.2766 17.6514 10.8089 17.824 9.33451 17.8907C1.12773 18.0797 -0.113916 13.8561 5.78962 8.75688V7.63593C3.1589 9.32675 0.705274 11.6359 0.505423 14.5051C0.379774 16.9567 2.45843 18.6238 4.57863 19.2906C9.19798 20.6985 14.1309 19.8358 18.5712 18.3735C22.966 16.8083 27.3568 14.4437 30.1309 10.5298C31.0778 9.14867 31.7495 7.28272 31.1371 5.61169ZM10.5425 9.26145H7.50122V16.4531H10.5425V9.26145ZM18.8205 3.08683C19.5527 3.21001 20.2182 3.58707 20.7001 4.15188C21.1821 4.71669 21.4498 5.43317 21.4562 6.17563C21.4394 7.90009 20.0483 9.32675 18.3249 9.34159V12.3829C19.9618 12.373 21.5287 11.7174 22.6849 10.5586C23.8412 9.39975 24.4933 7.8314 24.4995 6.19442V6.14693C24.4892 4.99598 24.1579 3.87074 23.5428 2.89786C23.3769 2.63431 23.191 2.38392 22.9867 2.14891C22.4042 1.47361 21.6827 0.931956 20.8717 0.56093C20.0607 0.189904 19.1791 -0.0017593 18.2873 -0.00097416H7.4844V3.04231H18.2932C18.47 3.04316 18.6463 3.05871 18.8205 3.08881V3.08683Z" fill="black"/>
</g>
<defs>
<clipPath id="clip0_3839_2514">
<rect width="116.059" height="20" fill="white" transform="translate(0.5)"/>
</clipPath>
</defs>
</svg>
