<svg width="37" height="35" viewBox="0 0 37 35" fill="none" xmlns="http://www.w3.org/2000/svg">
<g filter="url(#filter0_i_3629_1785)">
<path d="M36.6667 17.5L32.6 12.85L33.1667 6.7L27.15 5.33333L24 0L18.3333 2.43333L12.6667 0L9.51667 5.31667L3.5 6.66667L4.06667 12.8333L0 17.5L4.06667 22.15L3.5 28.3167L9.51667 29.6833L12.6667 35L18.3333 32.55L24 34.9833L27.15 29.6667L33.1667 28.3L32.6 22.15L36.6667 17.5ZM15.15 25.3667L8.81667 19.0167L11.2833 16.55L15.15 20.4333L24.9 10.65L27.3667 13.1167L15.15 25.3667Z" fill="#D32F2F"/>
</g>
<defs>
<filter id="filter0_i_3629_1785" x="0" y="0" width="36.6667" height="39" filterUnits="userSpaceOnUse" color-interpolation-filters="sRGB">
<feFlood flood-opacity="0" result="BackgroundImageFix"/>
<feBlend mode="normal" in="SourceGraphic" in2="BackgroundImageFix" result="shape"/>
<feColorMatrix in="SourceAlpha" type="matrix" values="0 0 0 0 0 0 0 0 0 0 0 0 0 0 0 0 0 0 127 0" result="hardAlpha"/>
<feOffset dy="4"/>
<feGaussianBlur stdDeviation="2"/>
<feComposite in2="hardAlpha" operator="arithmetic" k2="-1" k3="1"/>
<feColorMatrix type="matrix" values="0 0 0 0 0 0 0 0 0 0 0 0 0 0 0 0 0 0 0.25 0"/>
<feBlend mode="normal" in2="shape" result="effect1_innerShadow_3629_1785"/>
</filter>
</defs>
</svg>
