<svg width="73" height="25" viewBox="0 0 73 25" fill="none" xmlns="http://www.w3.org/2000/svg">
<path d="M35.1387 14.0967H32.4795V13.0234H35.1387C35.6536 13.0234 36.0706 12.9414 36.3896 12.7773C36.7087 12.6133 36.9411 12.3854 37.0869 12.0938C37.2373 11.8021 37.3125 11.4694 37.3125 11.0957C37.3125 10.7539 37.2373 10.4326 37.0869 10.1318C36.9411 9.83105 36.7087 9.58952 36.3896 9.40723C36.0706 9.22038 35.6536 9.12695 35.1387 9.12695H32.7871V18H31.4678V8.04688H35.1387C35.8906 8.04688 36.5264 8.17676 37.0459 8.43652C37.5654 8.69629 37.9596 9.05632 38.2285 9.5166C38.4974 9.97233 38.6318 10.4941 38.6318 11.082C38.6318 11.7201 38.4974 12.2646 38.2285 12.7158C37.9596 13.167 37.5654 13.5111 37.0459 13.748C36.5264 13.9805 35.8906 14.0967 35.1387 14.0967ZM44.3877 16.7354V12.9277C44.3877 12.6361 44.3285 12.3831 44.21 12.1689C44.096 11.9502 43.9229 11.7816 43.6904 11.6631C43.458 11.5446 43.1709 11.4854 42.8291 11.4854C42.5101 11.4854 42.2298 11.54 41.9883 11.6494C41.7513 11.7588 41.5645 11.9023 41.4277 12.0801C41.2956 12.2578 41.2295 12.4492 41.2295 12.6543H39.9648C39.9648 12.39 40.0332 12.1279 40.1699 11.8682C40.3066 11.6084 40.5026 11.3737 40.7578 11.1641C41.0176 10.9499 41.3275 10.7812 41.6875 10.6582C42.0521 10.5306 42.4577 10.4668 42.9043 10.4668C43.4421 10.4668 43.916 10.5579 44.3262 10.7402C44.7409 10.9225 45.0645 11.1982 45.2969 11.5674C45.5339 11.932 45.6523 12.39 45.6523 12.9414V16.3867C45.6523 16.6328 45.6729 16.8949 45.7139 17.1729C45.7594 17.4508 45.8255 17.6901 45.9121 17.8906V18H44.5928C44.529 17.8542 44.4788 17.6605 44.4424 17.4189C44.4059 17.1729 44.3877 16.945 44.3877 16.7354ZM44.6064 13.5156L44.6201 14.4043H43.3418C42.9818 14.4043 42.6605 14.4339 42.3779 14.4932C42.0954 14.5479 41.8584 14.6322 41.667 14.7461C41.4756 14.86 41.3298 15.0036 41.2295 15.1768C41.1292 15.3454 41.0791 15.5436 41.0791 15.7715C41.0791 16.0039 41.1315 16.2158 41.2363 16.4072C41.3411 16.5986 41.4984 16.7513 41.708 16.8652C41.9222 16.9746 42.1842 17.0293 42.4941 17.0293C42.8815 17.0293 43.2233 16.9473 43.5195 16.7832C43.8158 16.6191 44.0505 16.4186 44.2236 16.1816C44.4014 15.9447 44.4971 15.7145 44.5107 15.4912L45.0508 16.0996C45.0189 16.291 44.9323 16.5029 44.791 16.7354C44.6497 16.9678 44.4606 17.1911 44.2236 17.4053C43.9912 17.6149 43.7132 17.7904 43.3896 17.9316C43.0706 18.0684 42.7106 18.1367 42.3096 18.1367C41.8083 18.1367 41.3685 18.0387 40.9902 17.8428C40.6165 17.6468 40.3249 17.3848 40.1152 17.0566C39.9102 16.724 39.8076 16.3525 39.8076 15.9424C39.8076 15.5459 39.8851 15.1973 40.04 14.8965C40.195 14.5911 40.4183 14.3382 40.71 14.1377C41.0016 13.9326 41.3525 13.7777 41.7627 13.6729C42.1729 13.568 42.6309 13.5156 43.1367 13.5156H44.6064ZM49.6104 17.2344L51.668 10.6035H53.0215L50.0547 19.1416C49.9863 19.3239 49.8952 19.5199 49.7812 19.7295C49.6719 19.9437 49.5306 20.1465 49.3574 20.3379C49.1842 20.5293 48.9746 20.6842 48.7285 20.8027C48.487 20.9258 48.1976 20.9873 47.8604 20.9873C47.7601 20.9873 47.6325 20.9736 47.4775 20.9463C47.3226 20.9189 47.2132 20.8962 47.1494 20.8779L47.1426 19.8525C47.179 19.8571 47.236 19.8617 47.3135 19.8662C47.3955 19.8753 47.4525 19.8799 47.4844 19.8799C47.7715 19.8799 48.0153 19.8411 48.2158 19.7637C48.4163 19.6908 48.585 19.5654 48.7217 19.3877C48.863 19.2145 48.9837 18.9753 49.084 18.6699L49.6104 17.2344ZM48.0996 10.6035L50.0205 16.3457L50.3486 17.6787L49.4395 18.1436L46.7188 10.6035H48.0996ZM55.4277 12.0254V20.8438H54.1562V10.6035H55.3184L55.4277 12.0254ZM60.4111 14.2402V14.3838C60.4111 14.9215 60.3473 15.4206 60.2197 15.8809C60.0921 16.3366 59.9053 16.7331 59.6592 17.0703C59.4176 17.4076 59.1191 17.6696 58.7637 17.8564C58.4082 18.0433 58.0003 18.1367 57.54 18.1367C57.0706 18.1367 56.6559 18.0592 56.2959 17.9043C55.9359 17.7493 55.6305 17.5238 55.3799 17.2275C55.1292 16.9313 54.9287 16.5758 54.7783 16.1611C54.6325 15.7464 54.5322 15.2793 54.4775 14.7598V13.9941C54.5322 13.4473 54.6348 12.9574 54.7852 12.5244C54.9355 12.0915 55.1338 11.7223 55.3799 11.417C55.6305 11.1071 55.9336 10.8724 56.2891 10.7129C56.6445 10.5488 57.0547 10.4668 57.5195 10.4668C57.9844 10.4668 58.3968 10.5579 58.7568 10.7402C59.1169 10.918 59.4199 11.1732 59.666 11.5059C59.9121 11.8385 60.0967 12.2373 60.2197 12.7021C60.3473 13.1624 60.4111 13.6751 60.4111 14.2402ZM59.1396 14.3838V14.2402C59.1396 13.8711 59.1009 13.5247 59.0234 13.2012C58.946 12.873 58.8252 12.5859 58.6611 12.3398C58.5016 12.0892 58.2965 11.8932 58.0459 11.752C57.7952 11.6061 57.4967 11.5332 57.1504 11.5332C56.8314 11.5332 56.5534 11.5879 56.3164 11.6973C56.084 11.8066 55.8857 11.9548 55.7217 12.1416C55.5576 12.3239 55.4232 12.5335 55.3184 12.7705C55.2181 13.0029 55.1429 13.2445 55.0928 13.4951V15.2656C55.1839 15.5846 55.3115 15.8854 55.4756 16.168C55.6396 16.446 55.8584 16.6715 56.1318 16.8447C56.4053 17.0133 56.7493 17.0977 57.1641 17.0977C57.5059 17.0977 57.7998 17.027 58.0459 16.8857C58.2965 16.7399 58.5016 16.5417 58.6611 16.291C58.8252 16.0404 58.946 15.7533 59.0234 15.4297C59.1009 15.1016 59.1396 14.7529 59.1396 14.3838ZM66.3857 16.7354V12.9277C66.3857 12.6361 66.3265 12.3831 66.208 12.1689C66.0941 11.9502 65.9209 11.7816 65.6885 11.6631C65.4561 11.5446 65.1689 11.4854 64.8271 11.4854C64.5081 11.4854 64.2279 11.54 63.9863 11.6494C63.7493 11.7588 63.5625 11.9023 63.4258 12.0801C63.2936 12.2578 63.2275 12.4492 63.2275 12.6543H61.9629C61.9629 12.39 62.0312 12.1279 62.168 11.8682C62.3047 11.6084 62.5007 11.3737 62.7559 11.1641C63.0156 10.9499 63.3255 10.7812 63.6855 10.6582C64.0501 10.5306 64.4557 10.4668 64.9023 10.4668C65.4401 10.4668 65.9141 10.5579 66.3242 10.7402C66.7389 10.9225 67.0625 11.1982 67.2949 11.5674C67.5319 11.932 67.6504 12.39 67.6504 12.9414V16.3867C67.6504 16.6328 67.6709 16.8949 67.7119 17.1729C67.7575 17.4508 67.8236 17.6901 67.9102 17.8906V18H66.5908C66.527 17.8542 66.4769 17.6605 66.4404 17.4189C66.404 17.1729 66.3857 16.945 66.3857 16.7354ZM66.6045 13.5156L66.6182 14.4043H65.3398C64.9798 14.4043 64.6585 14.4339 64.376 14.4932C64.0934 14.5479 63.8564 14.6322 63.665 14.7461C63.4736 14.86 63.3278 15.0036 63.2275 15.1768C63.1273 15.3454 63.0771 15.5436 63.0771 15.7715C63.0771 16.0039 63.1296 16.2158 63.2344 16.4072C63.3392 16.5986 63.4964 16.7513 63.7061 16.8652C63.9202 16.9746 64.1823 17.0293 64.4922 17.0293C64.8796 17.0293 65.2214 16.9473 65.5176 16.7832C65.8138 16.6191 66.0485 16.4186 66.2217 16.1816C66.3994 15.9447 66.4951 15.7145 66.5088 15.4912L67.0488 16.0996C67.0169 16.291 66.9303 16.5029 66.7891 16.7354C66.6478 16.9678 66.4587 17.1911 66.2217 17.4053C65.9893 17.6149 65.7113 17.7904 65.3877 17.9316C65.0687 18.0684 64.7087 18.1367 64.3076 18.1367C63.8063 18.1367 63.3665 18.0387 62.9883 17.8428C62.6146 17.6468 62.3229 17.3848 62.1133 17.0566C61.9082 16.724 61.8057 16.3525 61.8057 15.9424C61.8057 15.5459 61.8831 15.1973 62.0381 14.8965C62.193 14.5911 62.4163 14.3382 62.708 14.1377C62.9997 13.9326 63.3506 13.7777 63.7607 13.6729C64.1709 13.568 64.6289 13.5156 65.1348 13.5156H66.6045ZM71.0137 7.5V18H69.7422V7.5H71.0137Z" fill="#505050"/>
<g clip-path="url(#clip0_3839_2471)">
<path d="M4.93338 19.9951C4.31251 19.9959 3.69168 19.9967 3.07089 19.9976C2.25623 19.9981 1.44157 19.9983 0.626909 19.9983C0.50591 19.9983 0.389423 19.9839 0.285878 19.918C0.0609782 19.7756 -0.0302179 19.5675 0.00872999 19.3099C0.100756 18.7011 0.200976 18.0935 0.296921 17.4853C0.396586 16.8536 0.495539 16.2219 0.593779 15.59C0.675396 15.0715 0.757447 14.5531 0.839934 14.0346C0.93105 13.4572 1.02209 12.8801 1.11304 12.3034C1.21184 11.6757 1.31079 11.0479 1.4099 10.42C1.51788 9.73385 1.62582 9.04762 1.73372 8.36127C1.84035 7.68687 1.94722 7.01246 2.05432 6.33806C2.16143 5.65962 2.26787 4.98106 2.37363 4.30238C2.47123 3.68247 2.56916 3.06257 2.6674 2.44266C2.75099 1.91269 2.83459 1.38241 2.91818 0.851805C2.93291 0.758309 2.9449 0.663982 2.96568 0.571672C3.0418 0.231622 3.31217 0.0109332 3.6595 0.00215314C3.69512 0.00120394 3.73074 0.00132251 3.76637 0.00132251C6.2189 0.00132251 8.67142 0.00104557 11.124 0.000491871C11.9018 -0.000220028 12.6623 0.104904 13.3969 0.362848C14.7773 0.847533 15.8598 1.70074 16.5885 2.97872C16.9368 3.58953 17.1483 4.24768 17.2373 4.9457C17.2708 5.20875 17.2771 5.47274 17.2833 5.73698C17.3507 5.85764 17.3486 5.907 17.273 5.98484C17.2073 5.97938 17.2058 5.92551 17.1996 5.88054C17.1857 5.77969 17.1262 5.71882 17.0375 5.67813C16.3231 5.35053 15.5783 5.14242 14.7915 5.08488C14.5502 5.06696 14.3097 5.06613 14.0688 5.06601C12.0557 5.0649 10.0426 5.0649 8.02962 5.06601C7.93866 5.06601 7.84818 5.06423 7.75912 5.09105C7.47152 5.1773 7.32499 5.3834 7.27975 5.6665C7.13263 6.58675 6.99049 7.50782 6.84444 8.42831C6.63331 9.75838 6.42884 11.0894 6.2151 12.419C6.19646 12.5351 6.18767 12.6534 6.14801 12.7647C6.12734 12.8227 6.17176 12.8715 6.15869 12.9256C6.0162 13.5738 5.94009 14.2333 5.8325 14.8874C5.71269 15.6156 5.60096 16.3452 5.48613 17.0744C5.34435 17.97 5.20328 18.8663 5.06293 19.7633C5.05609 19.8142 5.04537 19.8646 5.03087 19.9139C5.01638 19.9602 4.99655 20.0049 4.93338 19.9951Z" fill="#878787"/>
<path d="M17.2579 5.98039C17.2935 5.90196 17.2723 5.81737 17.2832 5.73633C17.6347 5.91264 17.958 6.13203 18.2622 6.37965C18.9001 6.89886 19.4036 7.52592 19.7628 8.26618C20.0108 8.77511 20.1751 9.3206 20.2497 9.88172C20.2805 10.1126 20.3166 10.3445 20.3128 10.5771C20.3023 11.1623 20.2169 11.7438 20.0585 12.3073C19.7212 13.5175 19.1101 14.5698 18.2166 15.4515C17.1443 16.5101 15.8621 17.1631 14.3701 17.4106C13.9993 17.4716 13.6242 17.5019 13.2484 17.5014C12.5405 17.5007 11.8325 17.5007 11.1246 17.5014C11.0533 17.5014 10.9821 17.4986 10.9115 17.5114C10.607 17.5666 10.3772 17.7917 10.3238 18.1024C10.2644 18.4447 10.2133 18.7884 10.159 19.1317C10.0183 20.021 9.87765 20.9102 9.73705 21.7993C9.60691 22.6262 9.47717 23.4531 9.34781 24.2801C9.3325 24.3774 9.32205 24.4772 9.27811 24.5671C9.14749 24.8343 8.93779 24.9933 8.63488 24.9962C8.03392 25.002 7.43284 24.9988 6.83176 24.999C6.19506 24.999 5.55835 24.999 4.92165 24.999C4.8504 24.999 4.77916 24.9998 4.70946 24.9817C4.4145 24.9049 4.23199 24.6234 4.27877 24.3091C4.32473 24.0006 4.37567 23.6929 4.42435 23.3848C4.53225 22.7023 4.64003 22.0198 4.74769 21.3372C4.81229 20.9277 4.87649 20.5181 4.94029 20.1085C4.94623 20.0704 4.96404 20.031 4.93352 19.995C4.98565 19.9247 4.9891 19.8394 5.00192 19.7586C5.08647 19.2287 5.16816 18.6985 5.25128 18.1687C5.35324 17.5179 5.45556 16.8671 5.55823 16.2163C5.62236 15.8074 5.68956 15.3981 5.75369 14.9888C5.84694 14.3965 5.93936 13.804 6.03095 13.2114C6.04787 13.1142 6.07006 13.0181 6.09745 12.9233C6.10932 12.6467 6.46009 12.4549 6.69116 12.4419C6.75054 12.4386 6.80991 12.44 6.86928 12.44C7.96837 12.44 9.06742 12.44 10.1664 12.44C11.1059 12.4427 12.0367 12.2605 12.9057 11.9039C13.5997 11.6205 14.2251 11.2246 14.7928 10.7368C15.5189 10.1131 16.0905 9.36844 16.5128 8.51167C16.8839 7.75867 17.1163 6.94503 17.1988 6.10972C17.2036 6.06131 17.1941 6.00365 17.2579 5.98039Z" fill="#B5B5B5"/>
<path d="M17.2578 5.98036C17.2502 6.37783 17.1725 6.76475 17.0756 7.14787C16.8122 8.19073 16.3357 9.12573 15.6463 9.95287C14.9881 10.7467 14.1632 11.3862 13.23 11.8259C12.5787 12.1346 11.883 12.3394 11.1683 12.4327C10.8117 12.4786 10.4524 12.5008 10.0928 12.4991C8.99372 12.4976 7.89451 12.4998 6.79542 12.4976C6.55389 12.4976 6.35785 12.5844 6.1998 12.7644C6.15753 12.8127 6.12855 12.8683 6.09768 12.9235C6.07393 12.8863 6.08581 12.8478 6.09198 12.8087C6.17946 12.2629 6.26653 11.7171 6.35322 11.1713C6.4813 10.36 6.60883 9.54859 6.73581 8.73719C6.82154 8.1914 6.90731 7.64529 6.99313 7.09887C7.06865 6.61513 7.14155 6.13092 7.21874 5.64755C7.27039 5.32411 7.45243 5.11089 7.77018 5.0187C7.81257 5.00684 7.85615 5.00684 7.89961 5.00684C10.1231 5.00684 12.3465 5.00775 14.5698 5.00956C14.7979 5.00956 15.0268 5.03863 15.2532 5.07518C15.4169 5.10164 15.5811 5.1256 15.7426 5.16678C16.1453 5.26929 16.5431 5.38545 16.9207 5.56212C16.9995 5.59902 17.0784 5.63556 17.1582 5.6689C17.2294 5.69904 17.2598 5.75041 17.2557 5.82706C17.2535 5.87749 17.2571 5.92898 17.2578 5.98036Z" fill="#4C4C4C"/>
</g>
<defs>
<clipPath id="clip0_3839_2471">
<rect width="20.3125" height="25" fill="white"/>
</clipPath>
</defs>
</svg>
