<svg width="31" height="35" viewBox="0 0 31 35" fill="none" xmlns="http://www.w3.org/2000/svg">
<g filter="url(#filter0_i_3629_448)">
<path d="M15.5 7.77778C16.0491 7.77778 16.5098 7.59176 16.8819 7.21972C17.2528 6.84639 17.4382 6.38426 17.4382 5.83333C17.4382 5.28241 17.2528 4.82028 16.8819 4.44694C16.5098 4.07491 16.0491 3.88889 15.5 3.88889C14.9508 3.88889 14.4908 4.07491 14.1199 4.44694C13.7478 4.82028 13.5617 5.28241 13.5617 5.83333C13.5617 6.38426 13.7478 6.84639 14.1199 7.21972C14.4908 7.59176 14.9508 7.77778 15.5 7.77778ZM20.9755 7.77778H24.3674C25.3366 7.77778 26.1765 8.10185 26.8871 8.75C27.5978 9.39815 28.0339 10.1921 28.1955 11.1319L30.9575 30.5764C31.119 31.7431 30.8205 32.7717 30.062 33.6622C29.3022 34.5541 28.3247 35 27.1294 35H3.87051C2.67526 35 1.69838 34.5541 0.939882 33.6622C0.180091 32.7717 -0.119045 31.7431 0.0424756 30.5764L2.80447 11.1319C2.96599 10.1921 3.4021 9.39815 4.11279 8.75C4.82348 8.10185 5.66338 7.77778 6.6325 7.77778H10.0244C9.92752 7.4537 9.84676 7.13741 9.78215 6.82889C9.71754 6.52167 9.68524 6.18981 9.68524 5.83333C9.68524 4.21296 10.2506 2.83565 11.3812 1.70139C12.5118 0.56713 13.8848 0 15.5 0C17.1152 0 18.4881 0.56713 19.6187 1.70139C20.7494 2.83565 21.3147 4.21296 21.3147 5.83333C21.3147 6.18981 21.2824 6.52167 21.2178 6.82889C21.1532 7.13741 21.0724 7.4537 20.9755 7.77778Z" fill="#D32F2F"/>
</g>
<defs>
<filter id="filter0_i_3629_448" x="0" y="0" width="31" height="39" filterUnits="userSpaceOnUse" color-interpolation-filters="sRGB">
<feFlood flood-opacity="0" result="BackgroundImageFix"/>
<feBlend mode="normal" in="SourceGraphic" in2="BackgroundImageFix" result="shape"/>
<feColorMatrix in="SourceAlpha" type="matrix" values="0 0 0 0 0 0 0 0 0 0 0 0 0 0 0 0 0 0 127 0" result="hardAlpha"/>
<feOffset dy="4"/>
<feGaussianBlur stdDeviation="2"/>
<feComposite in2="hardAlpha" operator="arithmetic" k2="-1" k3="1"/>
<feColorMatrix type="matrix" values="0 0 0 0 0 0 0 0 0 0 0 0 0 0 0 0 0 0 0.25 0"/>
<feBlend mode="normal" in2="shape" result="effect1_innerShadow_3629_448"/>
</filter>
</defs>
</svg>
