<svg width="78" height="27" viewBox="0 0 78 27" fill="none" xmlns="http://www.w3.org/2000/svg">
<g clip-path="url(#clip0_3839_2530)">
<path d="M60.8924 16.3933H59.0469V9.10645H60.8924V16.3933Z" fill="black"/>
<path d="M33.2136 11.84C33.2139 11.4811 33.1425 11.1257 33.0035 10.794C32.8646 10.4624 32.6608 10.161 32.4038 9.90719C32.1468 9.65334 31.8416 9.45196 31.5058 9.31456C31.1699 9.17716 30.8099 9.10645 30.4463 9.10645H27.679L26.2954 10.9282H30.4463C30.5675 10.9279 30.6876 10.9512 30.7997 10.9969C30.9117 11.0425 31.0136 11.1094 31.0994 11.194C31.1852 11.2785 31.2532 11.3789 31.2997 11.4894C31.3461 11.5999 31.37 11.7184 31.37 11.838C31.37 12.0799 31.2727 12.3118 31.0995 12.4828C30.9263 12.6538 30.6913 12.7499 30.4463 12.7499H25.8335V16.3933H27.679V14.5716H29.0607L30.9062 16.3933H33.2136L31.2565 14.4499C31.8227 14.2787 32.3183 13.9329 32.6706 13.4631C33.0228 12.9933 33.2132 12.4244 33.2136 11.84Z" fill="black"/>
<path d="M40.1337 10.9301L41.5174 9.1084H35.9828L34.5991 10.9301H40.1337Z" fill="black"/>
<path d="M35.9827 14.5719V13.662H39.6561L41.0261 11.8403H34.1372V16.3936H40.255L41.5173 14.5198L35.9827 14.5719Z" fill="black"/>
<path d="M46.13 16.3932H42.4409V11.8399H44.2864V14.5715H46.1241C46.3665 14.5715 46.6065 14.5244 46.8304 14.4329C47.0543 14.3413 47.2577 14.2071 47.4291 14.038C47.6005 13.8688 47.7364 13.668 47.8292 13.447C47.9219 13.2259 47.9696 12.9891 47.9696 12.7498C47.9696 12.5106 47.9219 12.2737 47.8292 12.0527C47.7364 11.8317 47.6005 11.6309 47.4291 11.4617C47.2577 11.2925 47.0543 11.1583 46.8304 11.0668C46.6065 10.9752 46.3665 10.9281 46.1241 10.9281H42.9008L44.2864 9.10449H46.13C46.6149 9.10449 47.095 9.19879 47.5429 9.38201C47.9909 9.56523 48.3979 9.83378 48.7406 10.1723C49.0834 10.5108 49.3553 10.9127 49.5406 11.355C49.726 11.7972 49.8213 12.2712 49.821 12.7498C49.8213 13.2284 49.726 13.7023 49.5406 14.1444C49.3552 14.5866 49.0833 14.9883 48.7405 15.3267C48.3977 15.665 47.9907 15.9334 47.5428 16.1164C47.0949 16.2994 46.6148 16.3935 46.13 16.3932Z" fill="black"/>
<path d="M58.1252 14.5716C58.1252 15.0547 57.9308 15.5181 57.5847 15.8597C57.2386 16.2014 56.7692 16.3933 56.2797 16.3933H50.7451V11.84H55.8139C55.9338 11.8401 56.0489 11.7942 56.1351 11.712C56.2213 11.6298 56.2717 11.5178 56.2758 11.3995C56.2776 11.3387 56.2671 11.2781 56.2448 11.2214C56.2226 11.1646 56.189 11.1128 56.1461 11.0691C56.1033 11.0253 56.052 10.9905 55.9953 10.9666C55.9385 10.9428 55.8775 10.9303 55.8159 10.9301H51.205L52.5887 9.1084H56.2797C56.5221 9.1084 56.7621 9.15552 56.986 9.24707C57.2099 9.33862 57.4133 9.4728 57.5847 9.64197C57.7561 9.81113 57.892 10.0119 57.9848 10.233C58.0775 10.454 58.1252 10.6909 58.1252 10.9301C58.1252 11.4133 57.9308 11.8766 57.5847 12.2182C57.2386 12.5599 56.7692 12.7518 56.2797 12.7518C56.7688 12.7518 57.238 12.9435 57.584 13.2847C57.93 13.6259 58.1247 14.0888 58.1252 14.5716ZM52.5887 13.6617V14.5716L55.8511 14.5252C55.9647 14.5242 56.0733 14.4794 56.1538 14.4003C56.2342 14.3212 56.2801 14.2142 56.2817 14.1021C56.283 14.0448 56.2727 13.9877 56.2513 13.9343C56.23 13.8809 56.198 13.8323 56.1574 13.7913C56.1167 13.7502 56.0681 13.7176 56.0145 13.6954C55.9609 13.6731 55.9034 13.6617 55.8452 13.6617H52.5887Z" fill="black"/>
<path d="M69.196 11.84C69.1963 11.4811 69.1249 11.1257 68.9859 10.794C68.847 10.4624 68.6432 10.161 68.3862 9.90719C68.1292 9.65334 67.8241 9.45196 67.4882 9.31456C67.1523 9.17716 66.7923 9.10645 66.4287 9.10645H63.6614L62.2758 10.9282H66.4287C66.5498 10.9282 66.6697 10.9517 66.7815 10.9974C66.8933 11.0431 66.9949 11.1102 67.0805 11.1946C67.1661 11.2791 67.234 11.3794 67.2803 11.4898C67.3267 11.6002 67.3505 11.7185 67.3505 11.838C67.3508 11.9577 67.3271 12.0762 67.2809 12.1868C67.2347 12.2974 67.1668 12.398 67.0812 12.4827C66.9956 12.5674 66.8939 12.6346 66.7819 12.6804C66.67 12.7263 66.5499 12.7499 66.4287 12.7499H61.8159V16.3933H63.6614V14.5716H65.0431L66.8886 16.3933H69.196L67.2487 14.4499C67.8127 14.2765 68.3059 13.9298 68.6562 13.4603C69.0065 12.9908 69.1956 12.4231 69.196 11.84Z" fill="black"/>
<path d="M73.8092 16.3932H70.1201V11.8399H71.9637V14.5715H73.8033C74.2928 14.5715 74.7622 14.3796 75.1083 14.038C75.4544 13.6963 75.6488 13.233 75.6488 12.7498C75.6488 12.5106 75.6011 12.2737 75.5084 12.0527C75.4156 11.8317 75.2797 11.6309 75.1083 11.4617C74.9369 11.2925 74.7335 11.1583 74.5096 11.0668C74.2857 10.9752 74.0457 10.9281 73.8033 10.9281H70.58L71.9637 9.10449H73.8092C74.2941 9.10449 74.7742 9.19879 75.2221 9.38201C75.6701 9.56523 76.0771 9.83378 76.4198 10.1723C76.7626 10.5108 77.0344 10.9127 77.2198 11.355C77.4052 11.7972 77.5005 12.2712 77.5002 12.7498C77.5005 13.2284 77.4052 13.7023 77.2198 14.1444C77.0344 14.5866 76.7625 14.9883 76.4197 15.3267C76.0769 15.665 75.6699 15.9334 75.222 16.1164C74.7741 16.2994 74.294 16.3935 73.8092 16.3932Z" fill="black"/>
<path d="M21.2887 6.85795C21.2887 7.02409 21.2789 7.19023 21.2632 7.35443C20.9262 7.35807 20.6007 7.47607 20.3414 7.68864C20.2453 7.76683 20.1592 7.85635 20.0851 7.95523C19.9695 8.1128 19.8877 8.29201 19.8447 8.48188C19.8017 8.67175 19.7984 8.86828 19.8351 9.05944C19.8717 9.2506 19.9475 9.43236 20.0578 9.5936C20.1681 9.75484 20.3105 9.89216 20.4765 9.99716C20.3584 10.2237 20.2277 10.4436 20.0851 10.6559C19.6666 11.2661 19.158 11.8111 18.5762 12.2728C18.3459 12.4548 18.1055 12.6237 17.8559 12.779L17.7424 12.8485C17.4135 13.0456 17.0701 13.2181 16.715 13.3643C15.853 13.7212 14.9342 13.9259 14.0005 13.969C13.9203 13.969 13.8381 13.969 13.7578 13.969C13.6926 13.969 13.6274 13.969 13.5621 13.969H13.4976C12.6482 14.0274 11.8526 14.4005 11.2701 15.0134C10.6877 15.6264 10.3613 16.4339 10.3565 17.2743C10.3557 17.5487 10.3906 17.822 10.4602 18.0876C9.81243 17.069 9.4698 15.8903 9.47186 14.6876C9.47159 14.3826 9.49317 14.0779 9.53644 13.7758C9.57509 13.5045 9.63197 13.236 9.70671 12.9722C9.74585 12.835 9.7889 12.6998 9.83587 12.5684C9.95653 12.2264 10.1071 11.8955 10.286 11.5793C10.4045 11.3636 10.5352 11.1546 10.6774 10.9534C11.0025 10.5051 11.3839 10.0994 11.8125 9.74602C10.3974 9.97923 9.08722 10.6306 8.05494 11.6141L7.90229 11.5967C6.24499 11.4024 4.67469 10.7585 3.3658 9.73636C1.91888 8.61135 0.864576 7.06788 0.350467 5.32203C-0.163642 3.57618 -0.111817 1.71534 0.498687 0C1.3598 1.47591 3.23859 2.77409 5.6086 3.35364C5.97523 3.44263 6.34626 3.51291 6.72021 3.5642C6.89048 3.58545 7.05879 3.60477 7.2271 3.61829C7.46195 3.63954 7.69484 3.64921 7.92381 3.65307C8.56866 3.65776 9.21133 3.72767 9.84174 3.86171L10.0512 3.91193C10.1275 3.92932 10.2018 3.94864 10.2782 3.96989C12.4936 4.56102 14.251 5.78386 15.1043 7.17284C15.1239 7.20375 15.1415 7.23466 15.1591 7.26557C15.2477 7.20414 15.3454 7.15657 15.4488 7.12455C15.5682 7.08608 15.693 7.06651 15.8186 7.06659C15.8743 7.06656 15.9299 7.07043 15.985 7.07818C16.0466 7.08602 16.1075 7.09895 16.167 7.11682C16.4027 6.61967 16.5358 6.08117 16.5584 5.53273C16.5584 5.46898 16.5584 5.4033 16.5584 5.33955C16.5627 4.60164 16.3689 3.87579 15.9967 3.2358C15.9812 3.21443 15.9729 3.18879 15.9729 3.16249C15.9729 3.13619 15.9813 3.11056 15.9968 3.08921C16.0124 3.06787 16.0344 3.05189 16.0596 3.04353C16.0849 3.03517 16.1122 3.03485 16.1376 3.04261C17.3471 3.315 20.7955 4.25386 21.2397 6.38659C21.2728 6.54157 21.2892 6.69957 21.2887 6.85795Z" fill="black"/>
<path d="M20.1067 19.0205C20.1064 19.325 20.0842 19.629 20.0402 19.9304C19.9088 20.8503 19.5748 21.7306 19.0617 22.5094C18.5369 23.3058 17.8422 23.9796 17.0263 24.4837C15.5389 25.4056 13.7447 25.7153 12.0286 25.3462C10.3126 24.9771 8.81154 23.9586 7.84764 22.5094C7.35965 21.7691 7.03246 20.937 6.88672 20.0656C6.93369 20.1429 6.98066 20.2202 7.03154 20.2936C8.05812 21.8435 9.66016 22.9336 11.4928 23.3292C13.3255 23.7249 15.2423 23.3944 16.8306 22.4089C16.8756 22.3819 16.9226 22.3529 16.9676 22.322C17.6505 21.8762 18.2498 21.3166 18.7387 20.6683C18.8268 20.5505 18.9129 20.4288 18.9951 20.3032C19.4914 19.5504 19.8319 18.708 19.9971 17.8247C20.0709 18.2191 20.1076 18.6194 20.1067 19.0205Z" fill="black"/>
<path d="M15.183 22.2393C13.8545 22.7234 12.3991 22.7487 11.0541 22.3112C9.70916 21.8737 8.55412 20.9992 7.77748 19.8303C7.03273 18.6967 6.69819 17.3479 6.82823 16.0029C6.95827 14.6579 7.54524 13.3959 8.49376 12.4218C8.54073 12.3716 8.58966 12.3252 8.63859 12.2769C8.799 12.1221 8.96754 11.9757 9.14351 11.8384C9.0574 12.0489 8.97912 12.2634 8.91062 12.4836C8.69697 13.1725 8.58492 13.8882 8.57792 14.6086C8.57792 14.6376 8.57792 14.6646 8.57792 14.6936C8.57648 16.1532 9.00558 17.5816 9.81283 18.8045C10.413 19.7175 11.2015 20.4953 12.1269 21.0872C13.0522 21.679 14.0936 22.0716 15.183 22.2393Z" fill="black"/>
<path d="M22.1421 8.69336C22.0932 8.69336 22.0443 8.69336 21.9934 8.69336C21.6224 8.68641 21.2587 8.79526 20.9542 9.00438C20.901 9.04408 20.8513 9.08802 20.8054 9.13574C20.644 8.95 20.5585 8.71162 20.5653 8.46701C20.5722 8.2224 20.671 7.98907 20.8426 7.81245C20.9667 7.68478 21.1226 7.59151 21.2947 7.54199L22.1421 8.69336Z" fill="black"/>
</g>
<defs>
<clipPath id="clip0_3839_2530">
<rect width="77.5" height="27" fill="white"/>
</clipPath>
</defs>
</svg>
