<svg width="35" height="35" viewBox="0 0 35 35" fill="none" xmlns="http://www.w3.org/2000/svg">
<g filter="url(#filter0_i_3629_458)">
<path d="M17.5 11.1364C13.9841 11.1364 11.1364 13.9841 11.1364 17.5C11.1364 21.0159 13.9841 23.8636 17.5 23.8636C21.0159 23.8636 23.8636 21.0159 23.8636 17.5C23.8636 13.9841 21.0159 11.1364 17.5 11.1364ZM31.7227 15.9091C30.9909 9.275 25.725 4.00909 19.0909 3.27727V0H15.9091V3.27727C9.275 4.00909 4.00909 9.275 3.27727 15.9091H0V19.0909H3.27727C4.00909 25.725 9.275 30.9909 15.9091 31.7227V35H19.0909V31.7227C25.725 30.9909 30.9909 25.725 31.7227 19.0909H35V15.9091H31.7227ZM17.5 28.6364C11.3432 28.6364 6.36364 23.6568 6.36364 17.5C6.36364 11.3432 11.3432 6.36364 17.5 6.36364C23.6568 6.36364 28.6364 11.3432 28.6364 17.5C28.6364 23.6568 23.6568 28.6364 17.5 28.6364Z" fill="#D32F2F"/>
</g>
<defs>
<filter id="filter0_i_3629_458" x="0" y="0" width="35" height="39" filterUnits="userSpaceOnUse" color-interpolation-filters="sRGB">
<feFlood flood-opacity="0" result="BackgroundImageFix"/>
<feBlend mode="normal" in="SourceGraphic" in2="BackgroundImageFix" result="shape"/>
<feColorMatrix in="SourceAlpha" type="matrix" values="0 0 0 0 0 0 0 0 0 0 0 0 0 0 0 0 0 0 127 0" result="hardAlpha"/>
<feOffset dy="4"/>
<feGaussianBlur stdDeviation="2"/>
<feComposite in2="hardAlpha" operator="arithmetic" k2="-1" k3="1"/>
<feColorMatrix type="matrix" values="0 0 0 0 0 0 0 0 0 0 0 0 0 0 0 0 0 0 0.25 0"/>
<feBlend mode="normal" in2="shape" result="effect1_innerShadow_3629_458"/>
</filter>
</defs>
</svg>
